<?xml version="1.0" encoding="UTF-8" standalone="no"?>
<!-- Created with Inkscape (http://www.inkscape.org/) -->

<svg
   width="68.213326mm"
   height="49.808826mm"
   viewBox="0 0 68.213326 49.808826"
   version="1.1"
   id="svg5"
   xml:space="preserve"
   xmlns="http://www.w3.org/2000/svg"
   xmlns:svg="http://www.w3.org/2000/svg"><defs
     id="defs2" /><g
     id="layer1"
     transform="translate(-29.864709,-23.572412)"><path
       style="fill:#000000;stroke-width:0.0846667"
       d="m 53.553303,73.0662 c -0.187667,-0.17329 -0.443473,-0.33552 -0.568458,-0.36052 -0.305134,-0.061 -0.519539,-0.28737 -0.457467,-0.48294 0.02747,-0.0865 0.06411,-0.33969 0.08144,-0.56257 0.05083,-0.65386 0.137676,-1.33177 0.175454,-1.36955 0.01926,-0.0193 0.126447,0.0565 0.238187,0.1683 0.150912,0.15104 0.214114,0.32664 0.245737,0.68278 0.02341,0.26369 0.01002,0.512 -0.02978,0.55179 -0.133346,0.13335 0.01461,0.45082 0.207148,0.44448 0.175986,-0.006 0.176276,-0.008 0.01129,-0.0787 -0.156996,-0.0675 -0.157819,-0.0732 -0.01129,-0.0787 0.115314,-0.004 0.14607,-0.0517 0.11376,-0.17529 -0.02435,-0.0931 -0.0097,-0.16933 0.03246,-0.16933 0.06604,0 0.116077,0.25162 0.08778,0.44145 -0.005,0.0332 0.04894,0.0382 0.119775,0.011 0.110341,-0.0423 0.114109,-0.0172 0.0263,0.1755 -0.08564,0.18797 -0.07979,0.24762 0.03561,0.36303 0.127681,0.12768 0.149925,0.12348 0.294992,-0.0557 0.136073,-0.16804 0.20402,-0.1858 0.511921,-0.13378 0.385813,0.0652 0.485591,0.21443 0.143357,0.21443 -0.367142,0 -0.229327,0.15101 0.1905,0.20875 0.563429,0.0775 1.036217,0.0676 1.3335,-0.0279 0.202749,-0.0651 0.216985,-0.0831 0.07056,-0.0889 -0.19827,-0.008 -0.276089,-0.13629 -0.218109,-0.35994 0.05091,-0.19638 0.365234,-0.25516 0.888387,-0.16614 0.03493,0.006 0.0635,0.068 0.0635,0.13781 0,0.1686 0.221973,0.16325 0.287275,-0.007 0.07065,-0.18412 0.06457,-0.22288 -0.02617,-0.1668 -0.131156,0.0811 -0.515106,-0.11018 -0.515106,-0.25657 0,-0.088 -0.04609,-0.12047 -0.127,-0.0894 -0.06985,0.0268 -0.127,0.0118 -0.127,-0.0333 0,-0.0451 0.06668,-0.0826 0.148167,-0.0833 0.108515,-9.2e-4 0.09152,-0.0299 -0.0635,-0.1085 -0.17896,-0.0907 -0.213138,-0.17008 -0.221192,-0.51387 -0.0082,-0.35 0.01833,-0.41931 0.1905,-0.49776 0.110014,-0.0501 0.200025,-0.12811 0.200025,-0.17329 0,-0.0465 0.127789,-0.0614 0.294536,-0.0344 0.193427,0.0314 0.50542,0.22531 0.90885,0.5649 0.337873,0.2844 0.81567,0.61561 1.06177,0.73602 0.506018,0.24757 0.581685,0.32809 0.453481,0.48256 -0.06401,0.0771 -0.06106,0.13726 0.01025,0.20857 0.205929,0.20593 -0.124964,0.368 -0.79276,0.3883 -0.621323,0.0189 -0.861949,0.1021 -1.244453,0.43034 -0.183045,0.15708 -0.323445,0.16969 -1.940169,0.17418 l -1.742844,0.005 -0.341215,-0.31507 z m 0.961887,-0.32961 c 0,-0.0466 -0.05715,-0.0847 -0.127,-0.0847 -0.06985,0 -0.127,0.0381 -0.127,0.0847 0,0.0466 0.05715,0.0847 0.127,0.0847 0.06985,0 0.127,-0.0381 0.127,-0.0847 z m 3.762816,-0.71275 c -0.09032,-0.066 -0.182222,-0.10207 -0.20423,-0.0801 -0.0466,0.0466 0.171732,0.19694 0.288764,0.19884 0.04382,6.8e-4 0.0058,-0.0527 -0.08453,-0.11878 z m -0.376149,-0.13406 c 0.239371,-0.005 -0.104949,-0.16648 -0.357176,-0.1679 -0.175293,-9.9e-4 -0.217931,0.0306 -0.178824,0.13253 0.03377,0.088 0.112583,0.11738 0.230177,0.0858 0.09835,-0.0264 0.235973,-0.0491 0.305823,-0.0504 z m -0.554552,-0.3317 c 0.02646,-0.0428 -0.01211,-0.13806 -0.08572,-0.21167 -0.170703,-0.1707 -0.198014,-0.1683 -0.163051,0.0143 0.0156,0.0815 0.03128,0.17674 0.03484,0.21167 0.0091,0.0891 0.156082,0.0793 0.213926,-0.0143 z m -3.86536,-0.15499 c -0.01631,-0.0815 -0.01404,-0.25803 0.0051,-0.39229 l 0.03472,-0.24413 0.111109,0.32319 c 0.06111,0.17776 0.09189,0.35429 0.0684,0.3923 -0.07282,0.11782 -0.188203,0.0762 -0.21929,-0.0791 z m 2.747238,-1.69334 c -0.09185,-0.23186 -0.03437,-3.57716 0.06146,-3.57716 0.02818,0 0.05731,-0.1524 0.06474,-0.33867 0.0074,-0.18627 -0.02258,-0.33867 -0.06668,-0.33867 -0.0441,0 -0.08018,-0.24645 -0.08018,-0.54767 0,-0.45188 0.0222,-0.53916 0.126919,-0.49898 0.176293,0.0677 0.27428,0.50761 0.20894,0.93815 -0.03016,0.19872 -0.03494,0.3812 -0.01063,0.40551 0.02431,0.0243 0.05418,0.51035 0.06639,1.08009 0.0122,0.56975 0.04769,1.31704 0.07885,1.66064 0.04923,0.54275 0.0324,0.67331 -0.128173,0.99483 -0.20621,0.4129 -0.237444,0.43445 -0.321629,0.22193 z m -0.549826,-0.36948 c -0.111704,-0.0629 -0.148166,-0.19282 -0.148166,-0.52796 0,-0.24449 0.04572,-0.49024 0.1016,-0.54612 0.07902,-0.079 0.07902,-0.1016 0,-0.1016 -0.122628,0 -0.136283,-0.30724 -0.01693,-0.381 0.04657,-0.0288 0.08525,-0.002 0.08596,0.0585 9.91e-4,0.0848 0.01911,0.0827 0.07717,-0.009 0.08672,-0.13699 0.162681,0.99093 0.09181,1.36326 -0.03574,0.18777 -0.06909,0.21285 -0.191447,0.14396 z m -2.9845,-0.15968 c -0.02878,-0.0466 0.0071,-0.0847 0.07967,-0.0847 0.0726,0 0.131997,0.0381 0.131997,0.0847 0,0.0466 -0.03585,0.0847 -0.07967,0.0847 -0.04382,0 -0.103217,-0.0381 -0.131997,-0.0847 z m 0.127,-1.10067 c 0,-0.0466 0.04035,-0.0847 0.08966,-0.0847 0.04932,0 0.06612,0.0381 0.03734,0.0847 -0.02878,0.0466 -0.06913,0.0847 -0.08966,0.0847 -0.02054,0 -0.03734,-0.0381 -0.03734,-0.0847 z m -0.04233,-0.254 c 0.02878,-0.0466 0.06913,-0.0847 0.08966,-0.0847 0.02053,0 0.03734,0.0381 0.03734,0.0847 0,0.0466 -0.04035,0.0847 -0.08966,0.0847 -0.04932,0 -0.06612,-0.0381 -0.03734,-0.0847 z M 32.226692,67.42889 c -0.08149,-0.0213 -0.148167,-0.0763 -0.148167,-0.12218 0,-0.0459 -0.03519,-0.0617 -0.07819,-0.0351 -0.04301,0.0266 -0.161784,-0.0691 -0.263952,-0.21255 -0.102168,-0.14349 -0.276531,-0.29539 -0.387474,-0.33757 -0.126405,-0.0481 -0.201715,-0.14483 -0.201715,-0.2592 0,-0.16219 0.03386,-0.17701 0.304204,-0.13314 0.167312,0.0272 0.424487,0.13972 0.5715,0.25014 0.367303,0.2759 0.563629,0.34057 0.563629,0.18566 0,-0.0684 -0.04762,-0.12493 -0.105833,-0.12564 -0.07025,-8.6e-4 -0.06314,-0.0283 0.02117,-0.0816 0.08573,-0.0542 0.163332,-0.044 0.238805,0.0315 0.09261,0.0926 0.164724,0.0848 0.420068,-0.0454 0.391789,-0.19975 1.550728,-0.22424 1.706893,-0.0361 0.150934,0.18187 -0.16752,0.31746 -0.699033,0.29764 -0.507143,-0.0189 -0.884763,0.10662 -0.965156,0.32083 -0.117545,0.3132 -0.492266,0.42935 -0.976744,0.30274 z M 52.80368,67.09072 c -0.07195,-0.14157 -0.02099,-0.78801 0.06051,-0.76763 0.04657,0.0116 0.07747,0.18711 0.06868,0.38993 -0.016,0.36919 -0.06328,0.50739 -0.129195,0.3777 z m 10.864788,-0.36856 c -0.111316,-0.0467 -0.327887,-0.1951 -0.48127,-0.32977 -0.153382,-0.13468 -0.358285,-0.27006 -0.455339,-0.30087 -0.09705,-0.0308 -0.298549,-0.16751 -0.447766,-0.3038 -0.149217,-0.13629 -0.311948,-0.2478 -0.361625,-0.2478 -0.04968,0 -0.252052,-0.14088 -0.449723,-0.31307 -0.197672,-0.17219 -0.500962,-0.3923 -0.673977,-0.48912 -0.302695,-0.16941 -0.489262,-0.55248 -0.269071,-0.55248 0.05479,0 0.08149,-0.0476 0.05935,-0.10583 -0.06357,-0.16708 0.08821,-0.48683 0.231089,-0.48683 0.07135,0 0.135531,0.0667 0.142623,0.14816 0.0071,0.0815 0.02175,0.18627 0.03257,0.23284 0.01082,0.0466 0.02407,0.12393 0.02944,0.17193 0.0054,0.048 0.127063,0.13155 0.270427,0.18566 0.143363,0.0541 0.281157,0.17677 0.306208,0.27257 0.02505,0.0958 0.08873,0.17435 0.141506,0.17456 0.05278,2.6e-4 0.210513,0.10499 0.350524,0.23284 0.428388,0.39115 0.523459,0.44888 0.655672,0.39815 0.101789,-0.0391 0.108717,-0.0884 0.03449,-0.24568 -0.05108,-0.10824 -0.134173,-0.18095 -0.184648,-0.16158 -0.05048,0.0194 -0.266897,-0.13744 -0.480936,-0.34845 -0.214041,-0.21102 -0.431086,-0.38367 -0.482323,-0.38367 -0.05124,0 -0.09316,-0.0381 -0.09316,-0.0847 0,-0.0466 -0.04508,-0.0751 -0.100182,-0.0635 -0.1363,0.0288 -0.350312,-0.42093 -0.283348,-0.59543 0.04651,-0.12121 0.06487,-0.12343 0.132788,-0.016 0.04335,0.0686 0.0794,0.0935 0.08011,0.0554 0.003,-0.1584 0.847963,0.54838 0.847963,0.70927 0,0.0493 0.03575,0.0676 0.07944,0.0406 0.04369,-0.027 0.210021,0.12192 0.369619,0.33094 0.159598,0.20902 0.308494,0.36172 0.330879,0.33934 0.02238,-0.0224 0.251872,0.0527 0.50997,0.16683 0.337563,0.14929 0.500847,0.27887 0.581778,0.46171 0.102879,0.23242 0.414315,0.42941 0.414315,0.26207 0,-0.13631 0.387896,-0.19842 1.354666,-0.21692 1.471795,-0.0282 2.539999,0.0498 2.539999,0.18542 0,0.25612 -0.340026,0.30346 -1.845656,0.25695 l -1.489628,-0.046 -0.312507,0.3385 c -0.337466,0.36555 -0.719267,0.48099 -1.084267,0.32786 z m 0.244726,-0.83321 c 0,-0.11823 -0.190757,-0.23656 -0.465667,-0.28885 -0.1397,-0.0266 -0.3302,-0.0772 -0.423333,-0.11244 -0.150482,-0.057 -0.156397,-0.0482 -0.05313,0.0787 0.06391,0.0786 0.202709,0.14285 0.308442,0.14285 0.105733,0 0.214171,0.0571 0.240976,0.127 0.05143,0.13404 0.392715,0.17984 0.392715,0.0527 z m -8.3693,0.75587 c 0.01863,-0.0559 0.06149,-0.0987 0.09525,-0.0952 0.101235,0.0105 0.08163,0.1266 -0.02752,0.16298 -0.05588,0.0186 -0.08636,-0.0119 -0.06773,-0.0677 z M 33.983523,66.17248 c -0.186267,-0.0671 -0.348192,-0.12258 -0.359834,-0.12329 -0.01164,-6.7e-4 -0.02117,-0.0543 -0.02117,-0.11909 0,-0.19783 0.411267,-0.2383 0.876736,-0.0863 0.524559,0.17132 0.493942,0.14853 0.428531,0.31898 -0.06653,0.17337 -0.45852,0.17747 -0.924267,0.01 z m -2.328334,-0.20923 c -0.104822,-0.0677 -0.09743,-0.0813 0.04233,-0.0774 0.09313,0.003 0.245534,0.0374 0.338667,0.0774 0.155081,0.0666 0.151518,0.0732 -0.04233,0.0774 -0.116417,0.003 -0.268817,-0.0323 -0.338667,-0.0774 z M 52.743875,65.8292 c 0.0041,-0.0986 0.02412,-0.1187 0.05115,-0.0512 0.02446,0.0611 0.02145,0.13415 -0.0067,0.16228 -0.02813,0.0281 -0.04815,-0.0219 -0.04447,-0.11112 z m 0.186864,-0.41628 c 6.78e-4,-0.23283 0.01708,-0.31803 0.03654,-0.18934 0.01946,0.1287 0.01894,0.3192 -0.0012,0.42334 -0.0201,0.10413 -0.03602,-10e-4 -0.03538,-0.234 z m 14.753648,0.14991 c -0.09119,-0.0232 -0.243592,-0.0912 -0.338667,-0.1512 -0.09507,-0.06 -0.296718,-0.13491 -0.448099,-0.16648 -0.213825,-0.0446 -0.287295,-0.026 -0.329282,0.0835 -0.04156,0.10829 -0.06957,0.11572 -0.121226,0.0321 -0.03695,-0.0598 -0.203097,-0.1087 -0.369217,-0.1087 -0.166121,0 -0.302038,-0.0305 -0.302038,-0.0677 0,-0.0373 0.115495,-0.0677 0.256657,-0.0677 0.149708,0 0.276907,-0.0528 0.305253,-0.12664 0.03357,-0.0875 0.124353,-0.11329 0.293675,-0.0835 0.181441,0.032 0.245082,0.01 0.245082,-0.085 0,-0.16056 0.121992,-0.16256 0.41027,-0.007 0.123601,0.0668 0.406948,0.18677 0.629662,0.26656 0.835479,0.29932 0.640809,0.70325 -0.23207,0.48153 z m -3.124481,-0.23458 c 0.0268,-0.0699 0.149434,-0.12565 0.27251,-0.124 l 0.223775,0.003 -0.211667,0.121 c -0.27393,0.1566 -0.344708,0.1566 -0.284618,0 z m 0.538618,-0.0423 c 0,-0.0466 0.0381,-0.0847 0.08467,-0.0847 0.04657,0 0.08467,0.0381 0.08467,0.0847 0,0.0466 -0.0381,0.0847 -0.08467,0.0847 -0.04657,0 -0.08467,-0.0381 -0.08467,-0.0847 z m -33.950039,-0.0635 c 6.78e-4,-0.0349 0.03823,-0.12065 0.08337,-0.1905 0.06637,-0.1027 0.08232,-0.0905 0.08337,0.0635 6.77e-4,0.10477 -0.0368,0.1905 -0.08337,0.1905 -0.04657,0 -0.08408,-0.0286 -0.08337,-0.0635 z m 21.558781,-0.889 c -0.0636,-0.67135 -0.05547,-0.84961 0.04425,-0.96976 0.06629,-0.0799 0.06239,-0.10974 -0.01433,-0.10974 -0.08268,0 -0.08334,-0.0266 -0.0031,-0.12329 0.05628,-0.0678 0.08041,-0.15874 0.05363,-0.20208 -0.07903,-0.12786 0.146947,-0.25182 0.330446,-0.18125 0.148841,0.0572 0.152373,0.0721 0.02918,0.12251 -0.119566,0.049 -0.138219,0.19332 -0.127,0.9828 0.01158,0.81502 -0.0038,0.9254 -0.128924,0.92536 -0.109592,-4e-5 -0.151702,-0.10168 -0.184184,-0.44455 z m 3.491232,-0.16933 c -0.0055,-0.0582 -9.15e-4,-0.14394 0.01023,-0.1905 0.01114,-0.0466 0.03528,-0.27007 0.05365,-0.49667 0.04395,-0.54208 0.18846,-0.81101 0.210822,-0.39233 0.0087,0.16298 0.02525,0.41063 0.03676,0.55033 0.03016,0.36597 -0.04763,0.635 -0.183618,0.635 -0.0648,0 -0.122333,-0.0476 -0.127847,-0.10583 z m 3.756526,-0.67706 c -0.151342,-0.0486 -0.275167,-0.12325 -0.275167,-0.166 0,-0.0427 -0.238218,-0.18574 -0.529373,-0.31776 -0.605568,-0.27458 -0.927843,-0.56498 -0.749387,-0.67527 0.08604,-0.0532 0.08801,-0.0834 0.0086,-0.1325 -0.07205,-0.0445 -0.03122,-0.12072 0.13626,-0.25427 0.192517,-0.15351 0.313983,-0.18294 0.62301,-0.15098 0.211128,0.0218 0.427376,0.0756 0.480553,0.11946 0.140736,0.1161 0.2019,0.41288 0.08509,0.41288 -0.05429,0 -0.144731,0.0737 -0.200983,0.16376 -0.09151,0.14653 -0.05801,0.19101 0.318301,0.42256 0.323827,0.19925 0.420575,0.30765 0.420575,0.47123 0,0.11684 -0.0095,0.20856 -0.02117,0.2038 -0.01164,-0.005 -0.144991,-0.0484 -0.296333,-0.0969 z m -0.592667,-1.22052 c -0.05821,-0.0235 -0.153458,-0.0235 -0.211666,0 -0.05821,0.0235 -0.01058,0.0427 0.105833,0.0427 0.116417,0 0.164042,-0.0192 0.105833,-0.0427 z m 29.560069,0.89429 c -0.20984,-0.18162 -0.42042,-0.33021 -0.46797,-0.33021 -0.0475,0 -0.24524,-0.12876 -0.43935,-0.28613 -0.1941,-0.15737 -0.50531,-0.36286 -0.69158,-0.45666 -0.18627,-0.0938 -0.41125,-0.25078 -0.49996,-0.34887 -0.0887,-0.0981 -0.2087,-0.17834 -0.26666,-0.17834 -0.058,0 -0.3082,-0.1524 -0.5561,-0.33867 -0.2479,-0.18627 -0.49926,-0.33867 -0.55859,-0.33867 -0.0593,0 -0.25085,-0.12557 -0.42561,-0.27904 -0.17476,-0.15347 -0.42755,-0.34814 -0.56175,-0.4326 -0.16784,-0.10563 -0.21187,-0.17342 -0.14106,-0.21718 0.0758,-0.0468 0.0676,-0.0772 -0.0312,-0.11507 -0.0738,-0.0283 -0.1341,-0.009 -0.1341,0.0437 0,0.0566 -0.0601,0.0418 -0.14817,-0.0363 -0.0815,-0.0723 -0.33446,-0.21827 -0.56215,-0.32434 -0.22769,-0.10606 -0.43041,-0.25565 -0.45048,-0.33241 -0.0201,-0.0768 -0.20784,-0.21022 -0.41727,-0.29659 -0.20943,-0.0864 -0.44559,-0.23941 -0.5248,-0.34011 -0.23597,-0.29999 -0.45177,-0.3696 -0.99351,-0.32048 -0.5049,0.0458 -0.50867,0.0444 -0.96502,-0.3451 -0.25198,-0.21509 -0.52892,-0.39106 -0.61542,-0.39106 -0.0865,0 -0.2493,-0.0993 -0.36178,-0.22067 -0.11248,-0.12137 -0.34878,-0.29664 -0.52512,-0.38948 -0.17634,-0.0928 -0.43491,-0.27503 -0.57461,-0.40485 -0.1397,-0.12983 -0.37783,-0.29844 -0.52917,-0.3747 -0.15134,-0.0763 -0.27517,-0.1748 -0.27517,-0.21897 0,-0.13808 -0.48003,-0.33604 -0.77573,-0.31991 -0.71639,0.0391 -0.96223,-0.0167 -1.25575,-0.28474 -0.16017,-0.1463 -0.41761,-0.3188 -0.57208,-0.38334 -0.15448,-0.0645 -0.32378,-0.21153 -0.37622,-0.32663 -0.0678,-0.14879 -0.22858,-0.25128 -0.55625,-0.35457 -0.25349,-0.0799 -0.42032,-0.1588 -0.37074,-0.17533 0.0506,-0.0169 0.0723,-0.14821 0.0495,-0.29927 -0.0294,-0.19485 -0.0208,-0.22399 0.031,-0.1055 0.0425,0.0971 0.094,0.12756 0.1266,0.0749 0.0849,-0.13743 0.5021,-0.0242 0.72667,0.19721 0.11112,0.10957 0.24809,0.19922 0.30438,0.19922 0.0563,0 0.16819,0.0728 0.24868,0.16172 0.0805,0.0889 0.2388,0.18492 0.35179,0.21328 0.11299,0.0284 0.20544,0.10798 0.20544,0.17695 0,0.16607 0.1825,0.15854 0.49425,-0.0204 0.19742,-0.1133 0.30737,-0.12699 0.4937,-0.0615 0.38462,0.13526 0.30835,0.33728 -0.12012,0.31819 -0.19791,-0.009 -0.35983,0.0198 -0.35983,0.0635 0,0.0437 0.18464,0.0795 0.41032,0.0795 0.42677,0 0.80217,0.14439 1.24867,0.48026 0.14409,0.10839 0.28879,0.19708 0.32154,0.19708 0.0327,0 0.14346,0.0894 0.24601,0.19878 0.24877,0.26523 0.60243,0.45647 0.54928,0.29703 -0.11213,-0.33641 0.45448,-0.38559 0.74492,-0.0647 0.14247,0.15743 0.13619,0.16102 -0.2266,0.1295 -0.20523,-0.0178 -0.31005,-0.0157 -0.23294,0.005 0.0771,0.0204 0.16342,0.12955 0.19179,0.24259 0.0546,0.2176 0.36776,0.35103 0.60774,0.25894 0.11551,-0.0443 0.10605,-0.0769 -0.0633,-0.21798 -0.15513,-0.12925 -0.16866,-0.1665 -0.0613,-0.1687 0.24822,-0.005 0.70397,0.23221 0.95801,0.49877 0.14292,0.14997 0.30538,0.24397 0.381,0.22045 0.18843,-0.0586 0.77571,0.16155 0.86724,0.32512 0.0821,0.14664 0.0257,0.17057 -0.33325,0.14149 -0.10477,-0.008 -0.1905,0.0254 -0.1905,0.0753 0,0.0499 0.0965,0.0907 0.21439,0.0907 0.26574,0 0.80161,0.21728 0.80161,0.32503 0,0.0438 0.16193,0.15892 0.35984,0.2558 0.46864,0.22942 0.85468,0.45955 0.91963,0.54824 0.0285,0.0389 0.0666,0.0618 0.0847,0.051 0.0906,-0.0544 0.75684,0.37335 1.10744,0.71105 0.35864,0.34544 1.03947,0.73357 1.28678,0.73357 0.0529,0 0.13377,0.0833 0.17973,0.18502 0.10295,0.2279 0.25842,0.28706 0.32162,0.12238 0.0325,-0.0848 -0.0959,-0.19788 -0.4127,-0.36341 -0.25297,-0.13218 -0.46003,-0.2677 -0.46014,-0.30117 -8e-5,-0.0335 -0.0578,-0.0387 -0.12816,-0.0117 -0.0916,0.0351 -0.11307,0.0103 -0.0756,-0.0873 0.0288,-0.075 0.0864,-0.13642 0.12796,-0.13642 0.0416,0 0.0756,-0.0596 0.0756,-0.13242 0,-0.11014 0.0605,-0.0995 0.35936,0.0635 0.19765,0.10775 0.43343,0.26259 0.52397,0.34408 0.14962,0.13469 0.15114,0.14817 0.0166,0.14817 -0.0814,0 -0.12442,0.0381 -0.0956,0.0847 0.0288,0.0466 0.22601,0.0847 0.43829,0.0847 0.33746,0 0.42857,0.0426 0.72493,0.33897 0.18643,0.18643 0.43631,0.38645 0.55529,0.4445 0.28094,0.13706 0.33994,0.3172 0.10388,0.3172 -0.10443,0 -0.15821,0.0375 -0.12676,0.0884 0.03,0.0486 0.0152,0.13591 -0.033,0.19399 -0.0635,0.0765 -0.0404,0.13514 0.084,0.21283 0.14986,0.0936 0.17751,0.0849 0.21754,-0.0682 0.0411,-0.1573 0.0905,-0.17028 0.47871,-0.1259 0.23807,0.0272 0.48211,0.0904 0.54233,0.14036 0.0602,0.05 0.21732,0.0952 0.34911,0.10053 0.13179,0.005 0.29679,0.0571 0.36667,0.11511 0.0699,0.058 0.30358,0.13842 0.51932,0.17873 0.48892,0.0913 0.6904,0.23873 0.55288,0.40444 -0.0535,0.0644 -0.17778,0.11061 -0.27621,0.1026 -0.0984,-0.008 -0.33138,-0.003 -0.51764,0.0108 -0.24299,0.0182 -0.13534,0.0471 0.381,0.10228 0.39581,0.0423 0.83396,0.0762 0.97366,0.0753 0.69518,-0.005 2.58574,-0.11672 2.55115,-0.15131 -0.0218,-0.0218 -0.33797,-0.0585 -0.70269,-0.0816 -1.18234,-0.075 -0.90957,-0.2593 0.43305,-0.29261 0.38097,-0.009 0.68486,0.0194 0.70056,0.0665 0.0153,0.0458 0.1384,0.067 0.27366,0.0471 0.16382,-0.024 0.2312,-0.0744 0.20184,-0.15099 -0.0362,-0.0943 0.16627,-0.1091 1.12784,-0.0826 0.89352,0.0246 1.03113,0.0161 0.57926,-0.0359 -0.99761,-0.11483 -1.34203,-0.19346 -1.50257,-0.34303 -0.0895,-0.0834 -0.23732,-0.12756 -0.35296,-0.10545 -0.20271,0.0387 -0.38587,-0.12206 -0.25082,-0.22022 0.0409,-0.0297 0.0744,-0.11118 0.0744,-0.18103 0,-0.0887 0.0766,-0.12154 0.254,-0.10891 0.40875,0.0291 0.64574,0.1077 0.59113,0.19606 -0.0279,0.0452 0.0492,0.0822 0.17144,0.0822 0.12222,0 0.29864,0.0409 0.39204,0.0909 0.16263,0.087 0.56246,0.14121 1.15256,0.15615 0.3328,0.008 0.70275,0.32196 0.51799,0.439 -0.0805,0.051 -0.0844,0.0738 -0.0127,0.0747 0.1499,0.002 0.0338,0.24397 -0.169,0.35253 -0.10282,0.055 -0.60691,0.0876 -1.24356,0.0804 l -1.07066,-0.0121 -0.37142,0.33282 -0.37142,0.33282 -2.74001,-7.6e-4 -2.74001,-7.7e-4 -0.38153,-0.33021 z m 0.72943,-0.58558 c 0,-0.0473 -0.14287,-0.14785 -0.3175,-0.22341 -0.17462,-0.0755 -0.40316,-0.17659 -0.50787,-0.22453 -0.10471,-0.0479 -0.2101,-0.0674 -0.23421,-0.0433 -0.066,0.066 0.80961,0.50014 0.89821,0.44538 0.0422,-0.0261 0.0767,-0.007 0.0767,0.0423 0,0.0493 0.0191,0.0897 0.0423,0.0897 0.0233,0 0.0423,-0.0387 0.0423,-0.086 z m 0.23108,-0.38845 c -0.0281,-0.0281 -0.10116,-0.0311 -0.16229,-0.007 -0.0675,0.027 -0.0475,0.0471 0.0512,0.0511 0.0893,0.004 0.13926,-0.0163 0.11113,-0.0445 z m 5.44159,-0.54152 c 0,-0.0466 -0.0594,-0.0847 -0.132,-0.0847 -0.0726,0 -0.10844,0.0381 -0.0797,0.0847 0.0288,0.0466 0.0882,0.0847 0.132,0.0847 0.0438,0 0.0797,-0.0381 0.0797,-0.0847 z m -7.493,-0.16933 c -0.0288,-0.0466 -0.10948,-0.0847 -0.17933,-0.0847 -0.0699,0 -0.10345,0.0381 -0.0747,0.0847 0.0288,0.0466 0.10948,0.0847 0.17933,0.0847 0.0699,0 0.10345,-0.0381 0.0747,-0.0847 z m -0.30198,-0.27963 c -0.0202,-0.0156 -0.18174,-0.11153 -0.35903,-0.21307 -0.42026,-0.24072 -0.6131,-0.23741 -0.22799,0.004 0.16298,0.10213 0.32886,0.23851 0.36861,0.30306 0.0517,0.084 0.0982,0.0914 0.16369,0.026 0.0503,-0.0503 0.0749,-0.10422 0.0547,-0.11987 z m -6.51369,-3.53037 c 0,-0.0466 -0.0667,-0.0841 -0.14816,-0.0834 -0.12663,0.001 -0.1297,0.0132 -0.0212,0.0834 0.15978,0.10326 0.16933,0.10326 0.16933,0 z m -0.43649,-0.45958 c -0.19022,-0.19023 -0.91817,-0.40614 -0.91817,-0.27233 0,0.0285 0.1878,0.14689 0.41734,0.26321 0.22954,0.11631 0.44339,0.25362 0.47522,0.30513 0.0406,0.0657 0.0845,0.067 0.14723,0.004 0.0627,-0.0627 0.0264,-0.1523 -0.12162,-0.30032 z M 60.121019,62.7004 c -0.09133,-0.10356 -0.08244,-0.12378 0.05444,-0.12378 0.08999,0 0.185543,0.0571 0.212348,0.127 0.06221,0.16211 -0.122934,0.15988 -0.26679,-0.003 z m -3.810895,-0.056 c -0.05588,-0.0559 -0.1016,-0.19685 -0.1016,-0.31327 0,-0.25805 0.12516,-0.14546 0.202348,0.18204 0.06121,0.25968 0.04666,0.27863 -0.100748,0.13123 z M 92.403526,62.492 c 0.0288,-0.0466 0.0691,-0.0847 0.0897,-0.0847 0.0205,0 0.0373,0.0381 0.0373,0.0847 0,0.0466 -0.0403,0.0847 -0.0897,0.0847 -0.0493,0 -0.0661,-0.0381 -0.0373,-0.0847 z M 52.10219,62.26635 c -0.56227,-0.29709 -0.594339,-0.37459 -0.410242,-0.99145 0.0316,-0.10589 0.01503,-0.13878 -0.04975,-0.0987 -0.06888,0.0426 -0.08042,-0.01 -0.0397,-0.1799 0.08303,-0.34686 0.119697,-0.38682 0.253225,-0.276 0.09295,0.0771 0.11975,0.0734 0.120759,-0.0171 0.0011,-0.0977 0.0129,-0.0979 0.07429,-9.9e-4 0.04015,0.0634 0.05261,0.19314 0.0277,0.2884 -0.03069,0.11735 -0.01369,0.15367 0.05271,0.11264 0.0539,-0.0333 0.144672,-0.0317 0.201713,0.004 0.05704,0.0353 0.196572,0.0661 0.31007,0.0685 0.179277,0.004 0.20588,0.0433 0.202708,0.30074 -0.002,0.16298 -0.03409,0.37024 -0.0713,0.46059 -0.04318,0.10483 -0.03151,0.1763 0.03225,0.19755 0.05494,0.0183 0.0999,0.0873 0.0999,0.15324 0,0.1637 -0.478396,0.15118 -0.804334,-0.021 z m 0.550334,-0.70516 c 0.02328,-0.007 -0.03387,-0.0431 -0.127,-0.0806 -0.186677,-0.0751 -0.323836,-0.033 -0.255045,0.0783 0.03688,0.0597 0.183448,0.0605 0.382045,0.002 z m 3.56599,-0.2078 c -0.0098,-0.45109 0.01934,-0.58405 0.158346,-0.72306 0.09368,-0.0937 0.241768,-0.17033 0.329081,-0.17033 0.317707,0 0.68793,0.10813 0.688495,0.20108 7.62e-4,0.12067 0.579526,0.51854 0.754628,0.51874 0.07234,8e-5 0.143157,0.0605 0.157363,0.13428 0.02412,0.12524 -0.02697,0.1356 -0.41569,0.0843 -0.107647,-0.0142 -0.581546,-0.55052 -0.581546,-0.65813 0,-0.18153 -0.29736,-0.12629 -0.542333,0.10074 -0.125615,0.11642 -0.269194,0.21167 -0.319064,0.21167 -0.05912,0 -0.05506,0.0429 0.01165,0.12329 0.05738,0.0691 0.07261,0.17136 0.03468,0.23273 -0.0372,0.0602 -0.06906,0.18234 -0.07079,0.27145 -0.0017,0.0891 -0.04583,0.1764 -0.098,0.19399 -0.06284,0.0212 -0.09889,-0.15454 -0.106831,-0.52074 z M 30.757606,61.0099 c -0.858289,-0.42261 -0.800278,-0.2596 -0.749068,-2.1048 0.02473,-0.8911 0.06677,-1.75353 0.09343,-1.91651 0.04521,-0.27644 0.04876,-1.39811 0.0059,-1.85158 -0.01162,-0.12279 0.0441,-0.23771 0.143665,-0.29633 0.08945,-0.0527 0.222803,-0.14266 0.296333,-0.19999 0.07353,-0.0573 0.19652,-0.15257 0.273309,-0.21166 0.07679,-0.0591 0.164623,-0.19172 0.195185,-0.29473 0.0475,-0.1601 -0.01884,-0.23379 -0.457117,-0.50776 -0.531981,-0.33253 -0.580579,-0.41838 -0.412539,-0.72869 0.108574,-0.20049 0.105946,-0.62686 -0.0048,-0.77197 -0.108055,-0.14163 -0.122372,-1.67229 -0.01625,-1.73787 0.06324,-0.0391 0.04038,-0.25578 -0.07423,-0.70392 -0.146888,-0.57433 -0.167677,-0.98566 -0.18405,-3.64169 -0.01015,-1.64683 0.0096,-3.03957 0.0438,-3.09498 0.03424,-0.0554 0.201134,-0.15876 0.370871,-0.22968 0.594289,-0.24831 0.634661,-0.32866 0.571731,-1.13795 -0.0308,-0.39611 -0.07382,-0.78254 -0.09561,-0.85873 -0.02178,-0.0762 0.05655,-0.2528 0.174069,-0.39246 0.275824,-0.3278 0.65907,-0.38999 1.03531,-0.16801 0.27224,0.16063 0.326498,0.29412 0.290949,0.71583 -0.0098,0.1159 0.05464,0.22381 0.17063,0.28589 0.155368,0.0832 0.205019,0.0742 0.298859,-0.0542 0.0619,-0.0846 0.113281,-0.21329 0.114191,-0.28588 9.15e-4,-0.0726 0.19141,-0.33258 0.423334,-0.57776 0.463303,-0.48977 0.451742,-0.45408 0.458944,-1.41689 0.0032,-0.43218 -0.03324,-0.71783 -0.100766,-0.78922 -0.14641,-0.15477 -0.132337,-0.26449 0.04233,-0.33003 0.08149,-0.0306 0.192673,-0.11504 0.247071,-0.1877 0.07525,-0.10051 0.32836,-0.14346 1.058333,-0.17957 0.997016,-0.0493 1.183975,-0.092 1.467429,-0.334748 0.252005,-0.215835 0.478457,-0.258969 1.76947,-0.337043 1.002318,-0.06062 1.209453,-0.09744 1.397001,-0.248348 0.384856,-0.309674 0.622384,-0.368953 1.53253,-0.382474 0.909919,-0.01352 1.13381,-0.07216 1.55129,-0.406287 0.235529,-0.188506 0.273632,-0.191251 2.655026,-0.191251 h 2.416069 l 0.24098,0.28855 c 0.173783,0.208088 0.318777,0.293536 0.519974,0.306428 0.333097,0.02134 0.97055,-0.257251 1.087158,-0.475136 0.04572,-0.08542 0.225484,-0.220397 0.39948,-0.29994 0.173996,-0.07954 0.373507,-0.192232 0.443357,-0.25042 0.232013,-0.193276 1.193838,-0.302553 2.415519,-0.274436 l 1.2001,0.02762 0.351434,-0.3175 0.351435,-0.3175 1.036923,-0.01521 c 1.623762,-0.02383 1.842189,0.01858 2.214411,0.42988 0.182529,0.201692 0.668749,0.242708 0.855501,0.07217 0.149086,-0.136142 0.546488,-0.4081 1.184344,-0.810491 0.2794,-0.17626 0.71755,-0.455021 0.973667,-0.619469 0.256116,-0.164448 0.569743,-0.32487 0.696947,-0.356492 0.127204,-0.03162 0.355804,-0.166104 0.508,-0.298849 0.152196,-0.132744 0.364948,-0.268905 0.472783,-0.30258 0.107834,-0.03368 0.326991,-0.176185 0.487015,-0.316689 0.160025,-0.140502 0.452796,-0.337165 0.650604,-0.437029 0.334159,-0.168699 0.361135,-0.208083 0.380591,-0.555651 0.02521,-0.450319 0.197042,-0.661879 0.598814,-0.737252 0.165096,-0.03097 0.388465,-0.15158 0.496377,-0.268019 0.152838,-0.164914 0.196202,-0.180904 0.196202,-0.07234 0,0.07665 0.03883,0.139363 0.08628,0.139363 0.0487,0 0.06415,0.08816 0.03547,0.20243 -0.02794,0.111336 -0.01182,0.226524 0.03583,0.255973 0.116334,0.0719 0.216059,0.77171 0.136621,0.958724 -0.05701,0.134217 -0.103378,0.687591 -0.161474,1.927206 -0.01091,0.232833 -0.07006,0.641082 -0.131432,0.907219 -0.09046,0.392242 -0.09116,0.508497 -0.0037,0.613834 0.08941,0.107737 0.08437,0.129947 -0.02952,0.129947 -0.08393,0 -0.137366,0.0705 -0.137366,0.181227 0,0.194651 -0.329569,0.924858 -0.459708,1.018551 -0.04338,0.03123 -0.09445,0.437152 -0.113497,0.902053 -0.032,0.781099 -0.02205,0.849269 0.131103,0.897879 0.210405,0.0668 0.501981,-0.0496 0.812288,-0.32428 0.133753,-0.11839 0.306412,-0.23532 0.383688,-0.25985 0.140174,-0.0445 0.237034,-0.468247 0.107028,-0.468247 -0.03769,0 -0.06958,-0.123825 -0.07085,-0.275166 -0.0013,-0.151342 -0.02594,-0.490659 -0.0548,-0.754037 -0.04512,-0.411733 -0.0264,-0.512631 0.133497,-0.719667 0.2977,-0.385449 0.379369,-0.452463 0.551419,-0.452463 0.08924,0 0.232435,-0.07754 0.318206,-0.17232 0.08577,-0.09477 0.205975,-0.153121 0.267121,-0.129656 0.06115,0.02346 0.111176,-0.01195 0.111176,-0.0787 0,-0.06675 0.0762,-0.162145 0.169334,-0.211989 0.173301,-0.09275 0.249918,0.02487 0.08329,0.127854 -0.04733,0.02925 -0.06413,0.08865 -0.03734,0.131997 0.06153,0.09956 0.859731,0.104153 0.920821,0.0053 0.025,-0.04043 0.27489,-0.09948 0.55533,-0.131205 0.36252,-0.04101 0.5099,-0.09318 0.5099,-0.180484 0,-0.133871 0.10997,-0.156218 0.65617,-0.133334 0.32392,0.01357 0.35924,-0.0042 0.35388,-0.177693 -0.003,-0.106023 -0.0351,-0.267231 -0.0707,-0.35824 -0.063,-0.16106 -0.069,-0.160496 -0.22453,0.02117 -0.1626,0.189902 -0.46084,0.255895 -0.46084,0.101972 0,-0.04657 0.0369,-0.08467 0.082,-0.08467 0.0451,0 0.0601,-0.05715 0.0333,-0.127 -0.0508,-0.132307 -0.0329,-0.138351 0.49855,-0.168991 0.2198,-0.01267 0.3175,0.01703 0.3175,0.09651 0,0.06315 0.0782,0.114814 0.17374,0.114814 0.11654,0 0.2026,0.08281 0.26142,0.251527 0.0482,0.13834 0.11292,0.244545 0.14376,0.236012 0.0309,-0.0085 0.13449,0.02811 0.23033,0.08142 0.0958,0.05332 0.38973,0.112747 0.6531,0.132071 0.26336,0.01932 0.53627,0.0828 0.60647,0.141055 0.0766,0.06357 0.29265,0.09412 0.54034,0.07642 0.36011,-0.02574 0.42416,-0.0052 0.50248,0.160997 0.0799,0.169643 0.0675,0.1905 -0.11394,0.1905 -0.11203,0 -0.2037,0.04067 -0.2037,0.09037 0,0.05017 -0.0714,0.06772 -0.16041,0.03946 -0.0923,-0.02928 -0.21588,0.0046 -0.29093,0.07961 -0.0759,0.07588 -0.15166,0.09632 -0.18102,0.04883 -0.0764,-0.123693 -0.53929,-0.06783 -0.49068,0.05923 0.048,0.125465 -0.11366,0.143543 -0.18929,0.02117 -0.0288,-0.04657 -0.12853,-0.08467 -0.22166,-0.08467 -0.0931,0 -0.14579,-0.0381 -0.11701,-0.08467 0.0577,-0.09333 -0.4018,-0.120308 -0.49315,-0.02896 -0.0306,0.03064 -0.0161,0.103448 0.0323,0.161795 0.0618,0.07447 0.0577,0.124846 -0.0138,0.169039 -0.0598,0.03697 -0.0798,0.02728 -0.0485,-0.02348 0.0676,-0.109413 -0.22252,-0.378365 -0.37264,-0.34543 -0.0619,0.01358 -0.11431,-0.01975 -0.11643,-0.07408 -0.005,-0.131567 -0.13085,-0.253592 -0.13085,-0.127 0,0.201127 -0.1386,0.08969 -0.24114,-0.193881 -0.094,-0.259996 -0.12802,-0.284223 -0.30464,-0.217072 -0.10934,0.04157 -0.22217,0.05223 -0.25072,0.02367 -0.0285,-0.02855 -0.10146,0.01585 -0.16202,0.09867 -0.0693,0.09472 -0.26524,0.167277 -0.52829,0.195591 -0.24869,0.02677 -0.47919,0.108661 -0.5687,0.202047 -0.0828,0.08637 -0.25423,0.181367 -0.381,0.211103 -0.126766,0.02974 -0.545129,0.205803 -0.929691,0.391257 -0.788534,0.380269 -0.846495,0.473874 -0.739113,1.193638 0.188752,1.265176 0.02855,1.708176 -0.759671,2.100746 -0.688396,0.34284 -0.919293,0.36939 -1.359507,0.15628 -0.471296,-0.22815 -0.507711,-0.35458 -0.423678,-1.470981 0.03547,-0.471143 0.08849,-1.18697 0.117827,-1.590729 0.04238,-0.583211 0.09047,-0.774645 0.233942,-0.931333 0.385301,-0.420785 0.446177,-0.668118 0.457235,-1.857739 0.0075,-0.811088 0.05019,-1.24726 0.149956,-1.533486 0.104251,-0.299103 0.115104,-0.424312 0.04303,-0.49639 -0.125597,-0.125596 -0.306272,-0.01261 -0.243097,0.152018 0.02691,0.07013 0.01023,0.271231 -0.03708,0.446898 -0.07403,0.274938 -0.146427,0.345388 -0.520093,0.506136 -0.238749,0.102706 -0.514742,0.263873 -0.613318,0.358146 -0.09858,0.09427 -0.333827,0.238938 -0.52278,0.321476 -0.188954,0.08254 -0.40668,0.246415 -0.483835,0.36417 -0.07716,0.117754 -0.284508,0.260195 -0.460782,0.316533 -0.176274,0.05634 -0.415749,0.187014 -0.532166,0.290388 -0.116416,0.103373 -0.335961,0.236944 -0.487878,0.296824 -0.151916,0.05988 -0.416536,0.237407 -0.588045,0.394503 -0.171509,0.157095 -0.355478,0.285629 -0.40882,0.285629 -0.05334,0 -0.278494,0.17145 -0.500336,0.381 l -0.403351,0.381 h -0.803822 c -0.567794,0 -0.889268,0.04055 -1.094813,0.138083 -0.344956,0.163692 -0.457873,0.09979 -0.243072,-0.137564 0.08454,-0.09342 0.113786,-0.169853 0.06499,-0.169853 -0.0488,0 -0.110415,0.05651 -0.136918,0.125573 -0.02828,0.07369 -0.103881,0.104201 -0.182984,0.07385 -0.116641,-0.04476 -0.109697,-0.07845 0.05155,-0.250091 0.154329,-0.164276 0.167886,-0.220614 0.07889,-0.327845 -0.0839,-0.10109 -0.301558,-0.129483 -0.992606,-0.129483 -0.871447,0 -0.889094,0.0039 -1.140236,0.25509 -0.1403,0.1403 -0.325364,0.2927 -0.411255,0.338667 -0.08589,0.04597 -0.822939,0.08358 -1.637885,0.08358 -1.527068,0 -1.862918,0.05576 -2.063863,0.342648 -0.0637,0.09094 -0.190708,0.165352 -0.282241,0.165352 -0.09153,0 -0.335816,0.15614 -0.542851,0.346978 -0.380183,0.350441 -0.757432,0.493857 -1.309092,0.497668 -0.210414,0.0015 -0.368084,0.07547 -0.562803,0.264199 -0.211629,0.205119 -0.404439,0.2877 -0.885914,0.379445 -0.387803,0.0739 -0.686683,0.18421 -0.808107,0.29828 -0.125116,0.11754 -0.448533,0.23331 -0.922207,0.3301 -0.495482,0.10124 -0.795438,0.21099 -0.935007,0.34211 -0.153256,0.14398 -0.391258,0.22052 -0.936283,0.3011 -0.519371,0.0768 -0.775835,0.1564 -0.886491,0.27518 -0.114505,0.1229 -0.319102,0.18239 -0.773293,0.22484 -0.339677,0.0318 -0.727105,0.0447 -0.860953,0.0288 -0.215151,-0.0256 -0.245518,-0.0655 -0.261979,-0.34412 -0.02549,-0.43138 0.23538,-0.66965 0.791669,-0.7231 0.30897,-0.0297 0.429191,-0.0798 0.458249,-0.19088 0.05926,-0.22663 0.395294,-0.41005 0.954732,-0.52115 0.299911,-0.0596 0.621324,-0.192845 0.798355,-0.331085 0.193455,-0.151064 0.449962,-0.251465 0.738845,-0.289196 0.300177,-0.03921 0.542133,-0.136964 0.752231,-0.303929 0.364776,-0.289888 0.886301,-0.448819 1.252906,-0.381817 0.143927,0.0263 0.318835,0.0097 0.388685,-0.03697 0.08552,-0.0571 -0.481364,-0.06714 -1.735666,-0.03075 l -1.862667,0.05404 -0.320253,0.306021 -0.320251,0.306022 -1.161744,0.04363 c -1.067217,0.04008 -1.177493,0.05941 -1.355296,0.237511 -0.303769,0.304286 -0.547944,0.356453 -1.668457,0.356453 -1.161908,0 -1.393035,0.0566 -1.737238,0.42502 -0.252305,0.27009 -0.242642,0.2685 -1.748021,0.28714 -0.333626,0.004 -0.633778,0.0346 -0.667004,0.0677 -0.03323,0.0331 -0.0694,0.49032 -0.08039,1.016 -0.01099,0.52567 -0.02516,1.06219 -0.0315,1.19226 -0.0082,0.16767 -0.136546,0.35165 -0.441174,0.63226 -0.236309,0.21768 -0.563484,0.5781 -0.727055,0.80092 -0.33057,0.45033 -0.544225,0.54195 -0.981977,0.42108 -0.16266,-0.0449 -0.333362,-0.0575 -0.379339,-0.0279 -0.04598,0.0296 -0.15579,0.26016 -0.244029,0.51239 -0.149148,0.42635 -0.188422,0.46804 -0.55822,0.59267 -0.218781,0.0737 -0.429791,0.17216 -0.468911,0.21873 -0.08111,0.0965 0.01216,3.09225 0.107643,3.45718 0.05116,0.19552 0.09593,0.22966 0.242314,0.18475 1.074293,-0.32965 1.784568,-0.29796 2.039419,0.091 0.195763,0.29877 0.08755,0.7493 -0.276851,1.15265 l -0.298323,0.33021 0.09849,0.53453 c 0.05417,0.29399 0.09849,0.70689 0.09849,0.91756 0,0.6207 0.142101,0.7163 1.141864,0.76819 0.83018,0.0431 0.84998,0.049 1.09061,0.32557 0.134795,0.15493 0.433295,0.48042 0.663333,0.72331 0.230039,0.24289 0.455075,0.57498 0.500081,0.73797 0.04501,0.163 0.129576,0.34527 0.187935,0.40505 0.244076,0.25002 0.395511,0.54198 0.395511,0.76253 0,0.25947 0.02445,0.26735 0.738593,0.23799 0.397867,-0.0164 0.466372,0.008 0.682463,0.24481 0.264556,0.28965 0.642212,0.42955 1.160719,0.42998 0.357268,2.5e-4 1.441012,0.20842 2.699819,0.51849 0.671928,0.16551 0.807135,0.17424 1.27083,0.0821 0.285396,-0.0567 0.5791,-0.08 0.652674,-0.0518 0.139923,0.0537 0.394418,-0.17442 0.299967,-0.26887 -0.02992,-0.0299 -0.0544,-0.01 -0.0544,0.0444 0,0.0543 -0.05972,0.0988 -0.132706,0.0988 -0.09838,0 -0.117688,-0.0493 -0.07465,-0.1905 0.09266,-0.30407 0.273623,-0.4597 0.767694,-0.66023 0.254275,-0.1032 0.448915,-0.22785 0.432533,-0.277 -0.04497,-0.13489 0.1822,-0.32487 0.746089,-0.62396 0.468133,-0.24829 0.560004,-0.26731 1.1419,-0.23635 1.428009,0.076 1.994083,0.30761 2.232039,0.91338 0.07464,0.19002 0.200258,0.3452 0.300693,0.37147 0.242896,0.0635 0.513077,0.53939 0.513077,0.90368 0,0.19311 0.06208,0.36959 0.166873,0.47438 0.148584,0.14859 0.241892,0.16109 0.851369,0.11409 0.418395,-0.0323 0.962959,-0.009 1.40079,0.0586 0.674169,0.10488 0.739866,0.10115 1.117131,-0.0635 0.855789,-0.37337 1.413531,-0.47342 2.680112,-0.48077 1.417865,-0.008 1.434206,-6.7e-4 1.831453,0.84902 0.23207,0.49636 0.379446,0.62064 0.740482,0.62444 0.06043,6.8e-4 0.205824,-0.10237 0.323093,-0.22891 0.198832,-0.21454 0.269366,-0.23232 1.045363,-0.26348 0.824624,-0.0331 0.835007,-0.0362 1.149001,-0.34144 l 0.316857,-0.30801 1.152572,-0.0262 1.152572,-0.0262 0.259953,-0.27945 c 0.277026,-0.29781 0.825081,-0.44818 1.247246,-0.34223 0.257322,0.0646 0.537194,-0.071 0.821134,-0.39778 0.189004,-0.21753 0.282773,-0.24939 0.875781,-0.29752 0.600013,-0.0487 0.687748,-0.0792 0.908964,-0.31597 0.235095,-0.25163 0.2761,-0.2631 1.02922,-0.28794 0.7784,-0.0257 0.78633,-0.0281 1.04256,-0.3225 0.24802,-0.28496 0.28917,-0.29954 1.04521,-0.37046 0.45036,-0.0423 0.84697,-0.12458 0.92715,-0.19247 0.0771,-0.0653 0.2744,-0.1799 0.43853,-0.25476 0.16413,-0.0749 0.40803,-0.2303 0.54201,-0.34543 0.13399,-0.11512 0.3426,-0.2584 0.46359,-0.31839 0.12099,-0.06 0.33429,-0.2138 0.47399,-0.3418 0.1397,-0.12801 0.40388,-0.29526 0.58708,-0.37168 0.18319,-0.0764 0.48799,-0.27196 0.67733,-0.43454 0.34894,-0.29963 1.13913,-0.67677 1.62822,-0.77712 0.14738,-0.0302 0.46147,-0.23098 0.69798,-0.44608 0.3462,-0.31488 0.50644,-0.39971 0.82218,-0.4353 0.28101,-0.0317 0.44315,-0.10487 0.57202,-0.25821 0.0989,-0.1177 0.34178,-0.29407 0.53969,-0.39192 0.2369,-0.11713 0.35983,-0.23354 0.35983,-0.34073 0,-0.19266 -0.30326,-0.42641 -0.55321,-0.42641 -0.0973,0 -0.26248,-0.0798 -0.36711,-0.17725 -0.1809,-0.16853 -0.18897,-0.22994 -0.16414,-1.24883 l 0.0261,-1.07159 -0.36999,-0.0892 c -0.45249,-0.10911 -0.60368,-0.30027 -0.60368,-0.76327 0,-0.39464 -0.10228,-0.51841 -0.493,-0.59655 -0.36329,-0.0727 -0.46963,-0.23049 -0.49263,-0.7312 -0.0217,-0.47295 -0.0876,-0.54573 -0.56615,-0.6257 -0.2379,-0.0397 -0.34487,-0.10876 -0.40217,-0.25946 -0.0429,-0.11291 -0.0803,-0.87909 -0.0829,-1.70262 -0.003,-0.82353 -0.0316,-1.64797 -0.0643,-1.83209 l -0.0594,-0.33478 -0.46486,0.0237 c -0.3188,0.0162 -0.60925,0.10147 -0.9244,0.27128 -0.25274,0.13618 -0.54577,0.2476 -0.65117,0.2476 -0.1054,0 -0.21518,0.0381 -0.24396,0.0847 -0.0288,0.0466 -0.0977,0.0831 -0.15316,0.0812 -0.12836,-0.004 0.45129,-0.50456 0.58472,-0.50456 0.0546,0 0.16047,-0.0934 0.23523,-0.20746 0.17082,-0.26071 0.60649,-0.38509 1.05898,-0.30235 0.26927,0.0492 0.34856,0.0374 0.34856,-0.0519 0,-0.0636 -0.0618,-0.11563 -0.13736,-0.11563 -0.11251,0 -0.11829,-0.023 -0.032,-0.127 0.13591,-0.16376 0.33867,-0.16376 0.33867,0 0,0.0705 0.0753,0.127 0.16933,0.127 0.0931,0 0.16933,0.0425 0.16933,0.0945 0,0.0583 0.073,0.0729 0.1905,0.0381 0.10478,-0.0311 0.24559,-0.0674 0.31291,-0.0808 0.0673,-0.0134 0.13718,-0.0686 0.15522,-0.12275 0.0401,-0.12023 -0.1201,-0.13166 -0.19296,-0.0138 -0.0288,0.0466 -0.10723,0.0847 -0.17433,0.0847 -0.0966,0 -0.0911,-0.0319 0.0262,-0.15287 0.0815,-0.0841 0.18627,-0.15768 0.23284,-0.16356 0.98939,-0.12483 1.494,-0.16323 2.95128,-0.22457 0.69188,-0.0291 1.2981,-0.0778 1.34715,-0.108076 0.1509,-0.09326 2.09702,-0.08 2.0659,0.01407 -0.0154,0.04657 -0.23448,0.107986 -0.48684,0.136486 -0.25235,0.0285 -0.61123,0.10064 -0.79749,0.16029 -0.18627,0.0596 -0.77682,0.13214 -1.31234,0.16109 -0.93698,0.0507 -0.89807,0.0554 1.03297,0.12512 2.02606,0.0732 2.43587,0.0497 2.44141,-0.1401 0.002,-0.0573 0.0874,-0.2053 0.1905,-0.32885 l 0.18746,-0.224612 1.09644,0.07276 c 1.15776,0.07683 1.31656,0.04324 1.31656,-0.278498 0,-0.153292 -0.0365,-0.163007 -0.40217,-0.107133 -0.79293,0.12115 -1.35726,0.124508 -1.45342,0.0086 -0.0745,-0.08975 0.0429,-0.122984 0.60644,-0.171672 1.0032,-0.08668 1.35028,-0.07421 1.42784,0.05128 0.0544,0.08795 0.0897,0.08904 0.17338,0.0053 0.0686,-0.06865 0.37832,-0.105129 0.89253,-0.105129 0.61236,0 0.7874,-0.02593 0.7874,-0.116634 0,-0.238542 -0.20439,-0.302666 -0.42483,-0.133287 -0.2634,0.202384 -1.14031,0.22481 -1.39052,0.03556 -0.0904,-0.06837 -0.11897,-0.124308 -0.0635,-0.124308 0.13946,0 0.12623,-0.156041 -0.0262,-0.308429 -0.13631,-0.136304 -0.17566,-0.538238 -0.0527,-0.538238 0.0409,0 0.12173,0.05715 0.1797,0.127 0.058,0.06985 0.14056,0.127 0.18355,0.127 0.043,0 0.17493,0.09678 0.29321,0.215071 0.20773,0.207725 0.45272,0.223433 0.64976,0.04166 0.10371,-0.09568 -0.028,-0.510731 -0.16204,-0.510731 -0.0648,0 -0.11782,-0.03754 -0.11782,-0.08342 0,-0.04588 -0.12382,-0.0079 -0.27516,0.08435 -0.32735,0.199586 -0.46352,0.217344 -0.3175,0.04141 0.058,-0.06985 0.15788,-0.127 0.22203,-0.127 0.0642,0 0.11663,-0.04286 0.11663,-0.09525 0,-0.06068 -0.0922,-0.07681 -0.254,-0.04445 -0.1397,0.02794 -0.254,0.01485 -0.254,-0.02909 0,-0.04394 -0.0562,-0.05834 -0.12482,-0.03199 -0.0687,0.02634 -0.18568,-0.01295 -0.26005,-0.08732 -0.12385,-0.123854 -0.10446,-0.13647 0.23066,-0.150043 0.20123,-0.0082 0.50875,-0.0056 0.68338,0.0057 0.2734,0.01768 0.3175,-0.0044 0.3175,-0.158754 0,-0.157766 -0.0432,-0.176774 -0.35983,-0.158347 -0.61372,0.03572 -1.1764,-0.0088 -1.12672,-0.08923 0.0261,-0.04222 -0.0236,-0.0582 -0.11034,-0.03551 -0.10811,0.02827 -0.17202,-0.01314 -0.20297,-0.131513 -0.0391,-0.149407 -0.0808,-0.162573 -0.30819,-0.09735 -0.14465,0.04148 -0.32279,0.135213 -0.39586,0.208284 -0.0731,0.07307 -0.18284,0.132854 -0.24393,0.132854 -0.15965,0 -0.21274,0.396459 -0.0765,0.5714 0.0995,0.12776 0.10874,0.128886 0.0669,0.0081 -0.0363,-0.104795 0.0186,-0.15486 0.21751,-0.198557 0.34374,-0.0755 0.43142,0.01125 0.12798,0.126617 l -0.2341,0.089 0.20119,0.179637 0.20118,0.179637 -0.1905,-0.04668 c -0.22856,-0.056 -0.24327,0.0023 -0.0423,0.167881 0.14111,0.116266 0.14111,0.119733 0,0.07283 -0.0815,-0.02708 -0.20575,-0.07254 -0.27613,-0.101006 -0.0883,-0.03574 -0.11324,-0.0134 -0.0804,0.07214 0.08,0.208597 -0.33814,0.419281 -0.69817,0.35174 -0.17017,-0.03192 -0.36919,-0.06213 -0.44226,-0.06714 -0.20577,-0.01408 -0.6832,-0.328713 -0.6832,-0.450242 0,-0.05981 -0.0347,-0.108745 -0.0771,-0.108745 -0.0424,0 -0.23288,-0.102017 -0.42333,-0.226706 -0.23206,-0.151938 -0.34626,-0.288297 -0.34626,-0.413458 0,-0.121368 -0.0667,-0.205489 -0.1905,-0.240268 l -0.1905,-0.05351 0.23755,-0.21036 c 0.2202,-0.194996 0.49831,-0.257652 1.03245,-0.232609 0.88798,0.04163 1.07325,0.02354 1.23993,-0.121062 0.20569,-0.178446 1.08043,-0.415912 1.4694,-0.398897 0.90773,0.0397 1.97224,0.226035 2.32833,0.407545 0.20955,0.106813 0.48311,0.218965 0.60792,0.249228 0.39044,0.09468 0.49288,0.270587 0.49145,0.843983 -8.4e-4,0.287716 -0.0362,0.578216 -0.0787,0.645558 -0.0426,0.06734 -0.0472,0.18164 -0.0102,0.254 0.15637,0.305849 0.16134,0.84924 0.009,1.036773 -0.12765,0.157648 -0.25117,0.188507 -0.84686,0.211589 -0.65522,0.02539 -0.71808,0.04471 -1.03902,0.319421 -0.41015,0.35108 -0.80088,0.42712 -1.78157,0.34674 -0.7376,-0.0605 -0.87734,-0.0109 -1.37019,0.48583 -0.14083,0.14194 -0.38619,0.15127 -3.66511,0.13948 -3.37042,-0.0121 -3.52327,-0.006 -3.7365,0.15352 l -0.22231,0.16615 -0.0109,1.49166 c -0.0122,1.65998 -0.0302,1.6042 0.59464,1.83603 0.33655,0.12487 0.34847,0.14237 0.37426,0.54972 0.03,0.47344 0.1758,0.68424 0.52662,0.76129 0.3263,0.0717 0.44899,0.24448 0.50225,0.70746 0.0439,0.38154 0.059,0.39926 0.53759,0.63116 l 0.49243,0.23859 -0.0259,1.00227 c -0.0288,1.11506 0.039,1.29295 0.53439,1.40177 0.35576,0.0781 0.48802,0.33519 0.47342,0.92009 l -0.0125,0.49932 -0.4268,0.18929 c -0.23475,0.10411 -0.49624,0.26646 -0.58109,0.36078 -0.0849,0.0943 -0.27536,0.21898 -0.42334,0.27703 -0.14797,0.058 -0.39263,0.17878 -0.54367,0.26831 -0.2309,0.13685 -0.26078,0.18864 -0.18767,0.32525 0.0478,0.0894 0.24748,0.24438 0.44367,0.34447 0.39155,0.19975 0.56988,0.38545 0.55751,0.58057 -0.0331,0.52164 0.005,0.59077 0.434,0.77787 0.42711,0.1865 0.60315,0.43162 0.43253,0.60225 -0.11271,0.1127 -0.12576,0.5974 -0.0142,0.52847 0.0434,-0.0268 0.22014,0.0472 0.39282,0.16434 0.17268,0.11719 0.35977,0.21307 0.41574,0.21307 0.056,0 0.19354,0.0776 0.30569,0.17249 0.3084,0.26089 1.00195,0.72259 1.45209,0.96666 0.37787,0.20488 0.40076,0.23701 0.38867,0.54559 -0.0129,0.32785 -0.26185,0.77682 -0.37054,0.66812 -0.0317,-0.0317 -0.0672,-0.17942 -0.0789,-0.32832 -0.025,-0.31763 -0.22155,-0.49653 -0.9221,-0.83924 -0.27318,-0.13364 -0.57798,-0.31586 -0.67734,-0.40494 -0.0994,-0.0891 -0.39871,-0.28428 -0.66524,-0.43377 -0.44159,-0.24768 -0.48198,-0.29436 -0.45502,-0.52589 0.0202,-0.17357 -0.003,-0.24156 -0.0734,-0.21456 -0.17864,0.0686 -0.3448,-0.0843 -0.2352,-0.21636 0.0621,-0.0748 0.0676,-0.15863 0.0157,-0.23929 -0.0699,-0.10876 -0.0902,-0.1084 -0.16319,0.003 -0.0665,0.10123 -0.0838,0.0841 -0.0853,-0.0847 -0.002,-0.26528 -0.32196,-0.42924 -0.71286,-0.36581 -0.34609,0.0562 -0.64244,-0.0912 -0.64244,-0.3195 0,-0.0942 -0.0381,-0.1478 -0.0847,-0.11902 -0.0466,0.0288 -0.0847,0.012 -0.0847,-0.0373 0,-0.0493 0.0317,-0.0897 0.0704,-0.0897 0.0387,0 0.11851,-0.09 0.17736,-0.19995 0.087,-0.16254 0.0859,-0.23382 -0.006,-0.381 -0.13058,-0.2091 -0.39381,-0.23969 -0.46505,-0.0541 -0.0651,0.16969 -0.21888,0.16012 -0.4637,-0.0289 -0.22909,-0.17686 -0.58291,-0.28699 -0.58291,-0.18144 0,0.0386 -0.13089,0.11337 -0.29087,0.16617 -0.15997,0.0528 -0.30285,0.12569 -0.3175,0.16199 -0.0426,0.10557 -0.92393,0.68648 -1.04149,0.68648 -0.0588,0 -0.25285,0.13373 -0.43129,0.29717 -0.17843,0.16344 -0.44992,0.34254 -0.60331,0.39801 -0.15338,0.0555 -0.27888,0.14769 -0.27888,0.20494 0,0.0573 -0.0857,0.11628 -0.1905,0.13116 -0.10477,0.0149 -0.17145,0.0534 -0.14816,0.0856 0.0233,0.0322 -0.18002,0.21426 -0.45177,0.40462 -0.46725,0.32731 -0.53311,0.34796 -1.21213,0.37995 -0.68941,0.0325 -1.1301,0.18206 -1.1301,0.38357 0,0.15757 -0.36248,0.26837 -0.97481,0.29797 -0.65554,0.0317 -0.91788,0.1248 -1.14631,0.4069 -0.110945,0.13702 -0.277468,0.1812 -0.8381,0.2224 -0.553042,0.0406 -0.728784,0.0865 -0.838714,0.21878 -0.285124,0.34315 -0.580911,0.46364 -1.138198,0.46364 -0.494312,0 -0.573549,0.0266 -0.947619,0.3175 l -0.408201,0.3175 -0.981527,0.003 c -1.083097,0.003 -1.318553,0.0529 -1.454097,0.3062 -0.13583,0.2538 -0.596711,0.41043 -1.207676,0.41043 -0.389255,0 -0.573796,0.0375 -0.652719,0.13258 -0.227129,0.27367 -0.798672,0.48942 -1.582868,0.59751 -0.236067,0.0325 -0.359833,0.0174 -0.359833,-0.0439 0,-0.0514 -0.04342,-0.0935 -0.0965,-0.0935 -0.149916,0 -0.323796,-0.28264 -0.237699,-0.38638 0.111028,-0.13378 -0.05784,-0.6554 -0.279506,-0.86339 -0.143433,-0.13458 -0.363559,-0.19707 -0.889128,-0.25241 -0.384175,-0.0404 -0.6985,-0.0429 -0.6985,-0.005 0,0.0375 -0.1472,0.0682 -0.327111,0.0682 -0.525498,0 -1.179483,0.15167 -1.630319,0.37812 -0.536974,0.2697 -1.190158,0.30187 -1.599932,0.0788 -0.233382,-0.12705 -0.472734,-0.16092 -1.146326,-0.16219 -0.64389,-0.001 -0.947575,-0.0413 -1.246209,-0.16445 -0.375122,-0.15469 -0.399507,-0.18523 -0.487901,-0.61102 -0.05118,-0.24651 -0.09317,-0.47731 -0.09332,-0.51289 -5.93e-4,-0.13376 -0.262627,-0.34788 -0.373622,-0.30529 -0.07199,0.0276 -0.135182,-0.0341 -0.167741,-0.16383 -0.0598,-0.23827 -0.541376,-0.64074 -0.557533,-0.46595 -0.0055,0.0596 -0.03432,-0.005 -0.06401,-0.1438 -0.0488,-0.22788 -0.10262,-0.26295 -0.55892,-0.36418 -0.348173,-0.0772 -0.558288,-0.0859 -0.676819,-0.0278 -0.09454,0.0463 -0.336389,0.10921 -0.537435,0.13976 -0.201047,0.0305 -0.344941,0.0761 -0.319766,0.10131 0.07038,0.0704 -0.462329,0.70654 -0.54754,0.65388 -0.04124,-0.0255 -0.14161,0.0315 -0.22305,0.1266 -0.08144,0.0951 -0.244379,0.17352 -0.362089,0.17423 -0.155268,9.4e-4 -0.1819,0.0216 -0.09702,0.0754 0.09228,0.0584 0.07178,0.10373 -0.09699,0.21431 -0.117694,0.0771 -0.234066,0.21699 -0.258604,0.31082 -0.02454,0.0938 -0.09519,0.16225 -0.157011,0.15204 -0.06182,-0.0102 -0.169545,0.003 -0.239395,0.0296 -0.289399,0.10974 -0.945228,0.23396 -1.013238,0.19193 -0.04027,-0.0249 -0.166828,-0.01 -0.28124,0.0338 -0.119096,0.0453 -0.239762,0.0474 -0.282272,0.005 -0.08726,-0.0872 -0.536102,-0.16184 -1.301917,-0.21655 -1.077461,-0.077 -1.266694,-0.12114 -1.401665,-0.32713 -0.115947,-0.17696 -0.196176,-0.19706 -0.823895,-0.20637 -0.382492,-0.006 -0.656564,0.0183 -0.60905,0.0533 0.04752,0.035 0.133401,0.17055 0.19086,0.30123 0.05746,0.13069 0.134153,0.21927 0.170433,0.19684 0.03628,-0.0224 0.350441,0.0136 0.698139,0.08 0.347698,0.0664 0.917928,0.1265 1.267178,0.13352 0.725572,0.0146 0.80889,0.0402 0.671078,0.20624 -0.06814,0.0821 -0.314339,0.12447 -0.787278,0.13547 -0.538372,0.0125 -0.586789,0.0223 -0.222466,0.045 0.256116,0.0159 0.827616,-0.004 1.27,-0.044 0.442383,-0.0401 0.817033,-0.0413 0.832555,-0.003 0.01552,0.0387 0.10162,0.0703 0.191329,0.0703 0.08971,0 0.227168,0.0748 0.305467,0.16627 0.114608,0.13385 0.166526,0.14623 0.266326,0.0635 0.08797,-0.0729 0.536195,-0.0986 1.543651,-0.0883 1.158459,0.0118 1.42818,-0.008 1.465855,-0.10583 0.02539,-0.0662 0.08427,-0.12031 0.130836,-0.12031 0.04657,0 0.06403,0.0538 0.03881,0.1195 -0.03607,0.094 0.07744,0.12618 0.531824,0.15081 0.628966,0.0341 0.722709,0.0158 0.532896,-0.10429 -0.09838,-0.0622 -0.08453,-0.079 0.06595,-0.0801 0.104775,-6.8e-4 0.1905,0.0368 0.1905,0.0834 0,0.0505 0.3327,0.0853 0.8255,0.0863 1.070485,0.002 1.661545,0.14713 1.700741,0.41728 0.01572,0.10831 -0.01688,0.22503 -0.07243,0.25936 -0.07515,0.0464 -0.06371,0.11934 0.04466,0.28474 0.160253,0.24458 0.289407,0.27762 0.455247,0.11649 0.08787,-0.0854 0.103693,-0.0731 0.08188,0.0635 -0.01487,0.0931 0.03899,0.26353 0.11968,0.37867 0.0807,0.11513 0.146717,0.25801 0.146717,0.3175 0,0.0595 0.04642,0.0986 0.10315,0.087 0.06242,-0.0128 0.100435,0.0708 0.09627,0.21167 -0.0042,0.14347 0.03741,0.23283 0.108517,0.23283 0.06347,0 0.115393,0.0737 0.115393,0.16371 0,0.11166 0.06813,0.17223 0.214299,0.1905 0.117864,0.0147 0.209859,0.0606 0.204435,0.10199 -0.0054,0.0414 0.0302,0.1 0.07917,0.13023 0.06018,0.0372 0.05067,0.129 -0.02934,0.2832 -0.07555,0.14563 -0.08774,0.2471 -0.0337,0.2805 0.04657,0.0288 0.06543,0.10248 0.04192,0.16376 -0.02352,0.0613 0.01198,0.13244 0.07889,0.15811 0.06691,0.0257 0.121654,0.081 0.121654,0.12291 0,0.13193 -0.474719,0.0278 -0.987769,-0.2166 -0.550191,-0.26213 -0.542016,-0.23608 -0.424071,-1.35128 l 0.04639,-0.43864 -0.460275,-0.19077 c -0.253152,-0.10493 -0.460276,-0.21847 -0.460276,-0.25231 0,-0.0338 -0.16443,-0.14113 -0.365398,-0.23842 -0.349693,-0.16929 -0.495392,-0.17689 -3.390019,-0.17689 h -3.024623 l -0.342849,-0.34977 -0.342849,-0.34978 -2.045631,0.0416 c -2.152292,0.0438 -2.352854,0.0176 -2.611993,-0.34156 -0.06103,-0.0846 -0.280902,-0.24673 -0.488595,-0.36031 -0.289507,-0.15834 -0.390484,-0.26953 -0.432747,-0.47652 -0.03032,-0.14849 -0.01801,-0.30709 0.02734,-0.35245 0.126489,-0.12649 0.02339,-0.22557 -0.485379,-0.46646 L 35.803856,54.70478 V 54.2823 c 0,-0.36275 -0.03147,-0.4431 -0.222601,-0.56833 -0.216162,-0.14164 -0.22737,-0.13996 -0.387498,0.0578 -0.117627,0.14527 -0.159902,0.31394 -0.147473,0.58841 0.04289,0.94715 0.02864,0.99136 -0.386266,1.19858 -0.210012,0.10488 -0.437143,0.25181 -0.504736,0.3265 -0.143184,0.15822 -0.25724,1.15661 -0.148651,1.30123 0.128828,0.17158 0.114722,0.66582 -0.02336,0.81839 -0.07247,0.0801 -0.278661,0.21184 -0.458196,0.2928 -0.371472,0.16751 -0.515221,0.41618 -0.515221,0.89125 0,0.18132 -0.0381,0.35323 -0.08467,0.38201 -0.111328,0.0688 -0.109135,0.57666 0.003,0.68877 0.102582,0.10258 -0.196467,0.87756 -0.338629,0.87756 -0.04822,0 -0.08768,-0.0381 -0.08768,-0.0847 0,-0.0466 0.0381,-0.0847 0.08467,-0.0847 0.04657,0 0.08467,-0.0381 0.08467,-0.0847 0,-0.0466 -0.05715,-0.0847 -0.127,-0.0847 -0.0777,0 -0.127,0.0791 -0.127,0.20374 0,0.16205 -0.03464,0.19468 -0.169333,0.15946 -0.179159,-0.0469 -0.235503,-0.19387 -0.0743,-0.19387 0.06566,0 0.06245,-0.0393 -0.01037,-0.127 -0.07282,-0.0877 -0.07603,-0.127 -0.01037,-0.127 0.05227,0 0.09619,-0.0857 0.09761,-0.1905 0.0023,-0.16761 0.01274,-0.17305 0.0872,-0.0453 0.07944,0.13628 0.09484,0.13642 0.251425,0.002 0.122756,-0.10511 0.166803,-0.24964 0.166803,-0.54734 0,-0.23026 -0.03893,-0.40451 -0.09037,-0.40451 -0.05184,0 -0.06746,-0.0722 -0.03663,-0.16934 0.03268,-0.10296 0.01521,-0.16933 -0.04455,-0.16933 -0.05406,0 -0.118226,0.0762 -0.142581,0.16933 -0.02435,0.0931 -0.08201,0.16934 -0.128132,0.16934 -0.04612,0 -0.0606,-0.0606 -0.03218,-0.13464 0.02842,-0.0741 0.0247,-0.17828 -0.0083,-0.23162 -0.03296,-0.0533 -0.04922,-0.22135 -0.03612,-0.37336 0.01309,-0.15201 -0.01362,-0.27638 -0.05938,-0.27638 -0.05068,0 -0.0453,-0.0803 0.01379,-0.2055 0.107702,-0.22822 0.160403,-0.21577 0.200562,0.0474 0.01479,0.0969 0.06698,0.23879 0.115985,0.31531 0.06804,0.10625 0.0802,0.0574 0.05144,-0.20654 -0.02922,-0.26825 -0.0035,-0.36701 0.114747,-0.44087 0.101972,-0.0637 0.136509,-0.15595 0.10437,-0.27885 -0.03162,-0.1209 3.39e-4,-0.21074 0.09342,-0.26285 0.0778,-0.0435 0.120982,-0.11228 0.09596,-0.15277 -0.02502,-0.0405 -0.0068,-0.0975 0.04055,-0.12679 0.04992,-0.0309 0.08605,0.0399 0.08605,0.16848 0,0.13029 0.03589,0.19947 0.08707,0.16784 0.05681,-0.0351 0.06857,-0.42038 0.03383,-1.10849 -0.02966,-0.58752 -0.02061,-1.04406 0.02044,-1.03069 0.04052,0.0132 0.182457,-0.0767 0.315411,-0.19981 0.257352,-0.23827 0.232964,-0.45631 -0.04297,-0.38416 -0.08788,0.023 -0.159777,0.025 -0.159777,0.004 0,-0.0679 0.290742,-0.49592 0.379044,-0.55801 0.05767,-0.0406 0.0508,-0.11871 -0.02053,-0.2338 -0.0889,-0.14343 -0.08363,-0.20879 0.0309,-0.38359 0.107879,-0.16464 0.209959,-0.21069 0.466987,-0.21069 0.18091,0 0.328929,-0.0294 0.328929,-0.0654 0,-0.036 0.142875,-0.13545 0.3175,-0.22105 0.174625,-0.0856 0.386558,-0.19133 0.470963,-0.23495 0.0844,-0.0436 0.227279,-0.0559 0.3175,-0.0272 0.117944,0.0374 0.164037,0.012 0.164037,-0.0905 0,-0.101 -0.04949,-0.12964 -0.169686,-0.0982 -0.127424,0.0333 -0.182429,-0.006 -0.220846,-0.15946 -0.0354,-0.14103 -0.11084,-0.20383 -0.244876,-0.20383 -0.204315,0 -0.570815,-0.37135 -0.818211,-0.82903 -0.10389,-0.1922 -0.223217,-0.27675 -0.450825,-0.31945 -0.192217,-0.0361 -0.34565,-0.022 -0.404814,0.0372 -0.07059,0.0706 -0.06456,0.0953 0.02326,0.0953 0.08978,0 0.09476,0.0238 0.02052,0.098 -0.06971,0.0697 -0.129606,0.072 -0.207433,0.008 -0.06018,-0.0495 -0.251208,-0.0898 -0.424503,-0.0895 -0.173294,2.5e-4 -0.372649,-0.0571 -0.44301,-0.12746 -0.07036,-0.0704 -0.201538,-0.10868 -0.291503,-0.0851 -0.270721,0.0708 -0.343926,-0.22175 -0.391377,-1.56402 l -0.04471,-1.26467 0.319506,-0.23994 c 0.402299,-0.30211 0.436436,-0.35378 0.378957,-0.57358 -0.02574,-0.0984 -0.06234,-0.1323 -0.08134,-0.0753 -0.04881,0.14642 -0.189772,0.12907 -0.189772,-0.0233 0,-0.0699 -0.0381,-0.127 -0.08467,-0.127 -0.04657,0 -0.08467,0.0529 -0.08467,0.11758 0,0.0673 -0.126613,0.14133 -0.296334,0.17317 -0.162983,0.0306 -0.296333,0.10511 -0.296333,0.16563 0,0.0605 -0.07351,0.17657 -0.163355,0.25788 -0.138341,0.12519 -0.16021,0.24713 -0.142815,0.79628 0.02325,0.73411 -0.0014,0.86013 -0.168555,0.86013 -0.13506,0 -0.147718,-0.12953 -0.126169,-1.29117 0.0092,-0.4934 -0.01809,-0.8255 -0.06771,-0.8255 -0.128027,0 -0.197903,0.66222 -0.151462,1.43542 0.03025,0.50358 0.0072,0.78219 -0.08224,0.99636 -0.12891,0.30853 -0.09602,0.58295 0.05843,0.48749 0.103843,-0.0642 0.01857,0.36806 -0.103248,0.52336 -0.04744,0.0605 -0.04295,0.1194 0.01167,0.15316 0.04883,0.0302 0.08878,0.11202 0.08878,0.18187 0,0.0699 -0.03891,0.10295 -0.08648,0.0735 -0.0533,-0.0329 -0.08012,0.0545 -0.0699,0.22784 0.02186,0.37093 0.08586,0.47784 0.165037,0.27566 0.0424,-0.10828 0.06971,10e-4 0.08064,0.32312 0.0091,0.26776 0.0213,0.53294 0.02712,0.5893 0.0058,0.0564 0.143857,0.19227 0.306748,0.30204 0.16289,0.10977 0.330435,0.26369 0.37232,0.34204 0.114611,0.21439 0.121788,0.21719 0.260802,0.10182 0.108724,-0.0902 0.129047,-0.0788 0.129047,0.0726 0,0.11368 0.05444,0.18069 0.148166,0.1824 0.141112,0.003 0.141112,0.008 0,0.11516 -0.112809,0.0856 -0.148166,0.23652 -0.148166,0.63231 0,0.28591 -0.03492,0.51983 -0.07761,0.51983 -0.04268,0 -0.09125,-0.0409 -0.107911,-0.0909 -0.01667,-0.05 -0.136102,0.007 -0.265417,0.127 -0.129315,0.11985 -0.271255,0.2179 -0.315422,0.2179 -0.04417,0 -0.08031,0.054 -0.08031,0.11995 0,0.066 -0.04763,0.13916 -0.105833,0.16265 -0.08467,0.0342 -0.08467,0.044 0,0.0494 0.133086,0.008 0.140275,0.40443 0.0081,0.44848 -0.130947,0.0436 -0.127202,0.76736 0.0042,0.81116 0.07466,0.0249 0.0663,0.0883 -0.03126,0.23717 -0.07323,0.11177 -0.09417,0.20321 -0.04653,0.20321 0.123905,0 0.107362,0.31619 -0.01922,0.36726 -0.07815,0.0315 -0.07544,0.0445 0.01037,0.0494 0.09232,0.005 0.09508,0.0321 0.01341,0.13054 -0.07012,0.0845 -0.08814,0.31997 -0.0567,0.74083 0.02535,0.33934 0.04789,0.66233 0.05009,0.71774 0.0023,0.0572 0.104539,0.0927 0.236831,0.0822 0.203886,-0.0162 0.245602,0.0237 0.335534,0.32105 0.08451,0.27947 0.08132,0.37224 -0.01803,0.52387 -0.137553,0.20993 -0.06248,0.31041 0.29633,0.39664 0.116417,0.028 0.262808,0.13359 0.325315,0.2347 0.106871,0.17288 0.100559,0.18134 -0.105833,0.14189 -0.120715,-0.0231 -0.219482,-0.005 -0.219482,0.04 0,0.0451 -0.05476,0.061 -0.121695,0.0353 -0.06693,-0.0257 -0.133608,-10e-4 -0.148167,0.0544 -0.01766,0.0675 -0.198492,0.0164 -0.543055,-0.15321 z m 0.160115,-1.22731 c -0.02435,-0.0931 -0.07794,-0.16934 -0.119073,-0.16934 -0.04114,0 -0.07479,0.0762 -0.07479,0.16934 0,0.0931 0.05358,0.16933 0.119073,0.16933 0.07739,0 0.103572,-0.0593 0.07479,-0.16933 z M 49.18119,56.90392 c -0.116417,-0.0373 -0.440267,-0.065 -0.719667,-0.0616 l -0.508,0.006 0.550334,0.0554 c 0.807908,0.0814 0.931466,0.0814 0.677333,0 z m -1.705657,-0.12879 c 0.05765,-0.0576 -1.520032,-0.0324 -2.866343,0.0459 -0.904807,0.0526 -0.729465,0.059 0.841399,0.0305 1.091419,-0.0198 2.002644,-0.0542 2.024944,-0.0765 z M 39.39284,56.30559 c 0.276027,-0.009 -0.546998,-0.2456 -0.858484,-0.24705 -0.292954,-10e-4 -0.34059,0.067 -0.169333,0.24291 0.07086,0.0728 0.228631,0.0924 0.477483,0.0593 0.204409,-0.0272 0.452059,-0.052 0.550334,-0.0551 z m -1.387651,-0.75134 c 0,-0.0904 -0.03844,-0.18809 -0.08542,-0.21713 -0.12884,-0.0796 -0.422576,0.0383 -0.422576,0.16962 0,0.0995 0.07471,0.13317 0.4445,0.20032 0.03493,0.006 0.0635,-0.0624 0.0635,-0.15281 z m -0.139095,-0.47066 c 0.06985,-0.0699 0.165573,-0.127 0.212717,-0.127 0.183756,0 0.180927,-0.17459 -0.0039,-0.24298 -0.143016,-0.0529 -0.221675,-0.036 -0.294265,0.0633 -0.05449,0.0745 -0.08115,0.16448 -0.05925,0.19992 0.0219,0.0354 -5.08e-4,0.0644 -0.04984,0.0644 -0.04932,0 -0.08966,0.0381 -0.08966,0.0847 0,0.12397 0.138575,0.10333 0.284238,-0.0423 z m -3.697735,-0.39688 c -0.02703,-0.0675 -0.04709,-0.0475 -0.05115,0.0511 -0.0037,0.0893 0.01634,0.13926 0.04447,0.11113 0.02813,-0.0281 0.03114,-0.10116 0.0067,-0.16228 z m 3.460815,-0.19848 c -0.184662,-0.13967 -0.353727,-0.16033 -0.42102,-0.0515 -0.07241,0.11717 0.04421,0.18134 0.324313,0.17845 0.247862,-0.003 0.25275,-0.009 0.09671,-0.127 z m -3.4011,-0.0879 c 0.02805,-0.0731 -0.0044,-0.23503 -0.07222,-0.35984 l -0.123219,-0.22692 -0.0034,0.35983 c -0.0034,0.35879 0.102052,0.47912 0.198828,0.22693 z m 44.417122,-2.87276 c 0,-0.0699 -0.0359,-0.127 -0.0797,-0.127 -0.10677,0 -0.18323,0.13221 -0.11559,0.19985 0.0954,0.0953 0.19526,0.0581 0.19526,-0.0729 z m -1.18534,-1.397 c 0,-0.0931 -0.0381,-0.16934 -0.0847,-0.16934 -0.0466,0 -0.0847,0.0762 -0.0847,0.16934 0,0.0931 0.0381,0.16933 0.0847,0.16933 0.0466,0 0.0847,-0.0762 0.0847,-0.16933 z M 31.922497,41.66222 c -0.01596,-0.10868 -0.09216,-0.29465 -0.169333,-0.41326 l -0.140308,-0.21566 -0.02794,0.29187 c -0.01537,0.16054 0.01321,0.3056 0.0635,0.32236 0.05029,0.0168 0.09144,0.0876 0.09144,0.15748 0,0.0699 0.04763,0.11076 0.105833,0.0909 0.05821,-0.0199 0.09277,-0.12502 0.07681,-0.2337 z m 10.604938,-3.0917 0.246577,-0.10328 -0.18849,-0.10088 c -0.146037,-0.0782 -0.216037,-0.078 -0.310795,5.9e-4 -0.07126,0.0591 -0.242643,0.082 -0.410635,0.0547 -0.317285,-0.0515 -0.621901,0.1052 -0.52122,0.2681 0.07209,0.11664 0.795185,0.0438 1.184563,-0.11928 z m 1.720779,-0.68035 c 0.150712,-0.0703 0.314958,-0.20429 0.364989,-0.29777 0.06459,-0.1207 0.140967,-0.1541 0.263434,-0.11523 0.186351,0.0591 0.889818,-0.17577 1.072047,-0.358003 0.06156,-0.06156 0.163188,-0.111935 0.225832,-0.111935 0.06264,0 0.126596,-0.03511 0.142119,-0.07803 0.01552,-0.04292 0.208301,-0.09282 0.428399,-0.110899 0.220097,-0.01808 0.426472,-0.05917 0.458611,-0.0913 0.03214,-0.03214 0.128284,-0.05844 0.213656,-0.05844 0.08537,0 0.155222,-0.03361 0.155222,-0.07469 0,-0.09875 -0.607111,-0.103581 -1.106854,-0.0088 -0.219393,0.04161 -0.581911,0.191714 -0.805597,0.333572 -0.223685,0.141856 -0.465917,0.258775 -0.538291,0.259819 -0.07237,0.001 -0.360191,0.116416 -0.639591,0.256376 -0.2794,0.13997 -0.714741,0.29061 -0.967424,0.33476 -0.47685,0.0833 -0.653145,0.18205 -0.568799,0.31852 0.06434,0.1041 0.94002,-0.029 1.302247,-0.19795 z m 22.289644,0.0484 c 0,-0.10609 -0.08985,-0.10609 -0.254,0 -0.102697,0.0664 -0.09055,0.0823 0.0635,0.0834 0.104775,7.1e-4 0.1905,-0.0368 0.1905,-0.0834 z m 12.191998,-0.16632 0.55034,-0.0619 -0.508,-0.0261 c -0.5456,-0.028 -0.65953,-0.0216 -1.43934,0.0812 l -0.508,0.067 0.67734,8.4e-4 c 0.37253,4.3e-4 0.92498,-0.027 1.22766,-0.061 z M 66.622525,37.5999 c 0,-0.0466 -0.03585,-0.0847 -0.07967,-0.0847 -0.04382,0 -0.103217,0.0381 -0.131997,0.0847 -0.02878,0.0466 0.0071,0.0847 0.07967,0.0847 0.0726,0 0.131997,-0.0381 0.131997,-0.0847 z m -0.04595,-0.33282 c 0.02679,-0.04335 0.01,-0.102746 -0.03734,-0.131994 -0.04733,-0.02925 -0.08605,0.0062 -0.08605,0.07882 0,0.148714 0.0508,0.170614 0.123384,0.05318 z M 47.995857,36.278398 c 0,-0.207693 -0.295034,-0.0988 -0.305782,0.112862 -0.0079,0.156111 0.01593,0.17249 0.148166,0.101721 0.08669,-0.04639 0.157616,-0.142956 0.157616,-0.214583 z M 88.355866,35.50603 c -0.0215,-0.08238 -0.0404,-0.03548 -0.0422,0.104222 -0.002,0.1397 0.0158,0.2071 0.039,0.149778 0.0232,-0.05732 0.0246,-0.171622 0.003,-0.254 z m -3.59639,-0.0016 c 0.0209,-0.08149 -0.0129,-0.271991 -0.075,-0.423333 -0.10506,-0.255687 -0.14152,-0.275233 -0.51499,-0.276099 -0.22105,-5.08e-4 -0.55432,-0.02224 -0.74059,-0.0483 l -0.33866,-0.04736 0.23283,0.182359 c 0.12806,0.100297 0.23283,0.23689 0.23283,0.30354 0,0.343548 1.12089,0.631491 1.20362,0.309194 z M 64.675191,35.308922 c 0,-0.09588 -0.0381,-0.150783 -0.08467,-0.122003 -0.04657,0.02878 -0.08467,0.107228 -0.08467,0.17433 0,0.0671 0.0381,0.122003 0.08467,0.122003 0.04657,0 0.08467,-0.07845 0.08467,-0.17433 z m 0.283578,0.05004 c 0.02623,-0.06836 0.01126,-0.146808 -0.03328,-0.17433 -0.04453,-0.02752 -0.08097,0.02841 -0.08097,0.124288 0,0.204433 0.04708,0.225057 0.114245,0.05004 z m 23.459937,-0.459507 c 0.0258,-0.04169 -0.0101,-0.09764 -0.0797,-0.124343 -0.0768,-0.02949 -0.12652,2.54e-4 -0.12652,0.07579 0,0.136939 0.1323,0.168091 0.20618,0.04855 z m -17.36763,-1.386086 c -0.0766,-0.132197 -0.17765,0.02909 -0.13071,0.208598 0.0462,0.176815 0.0515,0.177844 0.10846,0.02108 0.0329,-0.09064 0.0429,-0.193995 0.0222,-0.22968 z m 19.70145,26.137221 c 0,-0.0726 0.0381,-0.10845 0.0847,-0.0797 0.0466,0.0288 0.0847,0.0882 0.0847,0.132 0,0.0438 -0.0381,0.0797 -0.0847,0.0797 -0.0466,0 -0.0847,-0.0594 -0.0847,-0.132 z m -1.10067,-0.0555 c 0,-0.0707 0.258,-0.21911 0.381,-0.21911 0.12301,0 0.381,0.14838 0.381,0.21911 0,0.0333 -0.17145,0.0605 -0.381,0.0605 -0.20955,0 -0.381,-0.0272 -0.381,-0.0605 z m 0.84667,-0.0715 c 0,-0.0959 0.0364,-0.15181 0.081,-0.12429 0.0445,0.0275 0.0595,0.10597 0.0333,0.17433 -0.0672,0.17502 -0.11424,0.15439 -0.11424,-0.05 z m -30.518719,-0.0738 c -0.05783,-0.0936 0.07573,-0.19462 0.153908,-0.11644 0.0805,0.0805 0.0655,0.19526 -0.02553,0.19526 -0.04382,0 -0.10159,-0.0355 -0.128381,-0.0788 z m 25.310869,-0.007 c -0.0293,-0.0473 -0.0903,-0.0631 -0.13572,-0.035 -0.0454,0.0281 -0.18564,-0.0189 -0.31165,-0.10445 -0.12601,-0.0855 -0.26734,-0.15619 -0.31407,-0.15707 -0.21319,-0.004 -0.78458,-0.34739 -1.00532,-0.6041 -0.13398,-0.15581 -0.29591,-0.28329 -0.35983,-0.28329 -0.0639,0 -0.11623,-0.0583 -0.11623,-0.12966 0,-0.0713 -0.0571,-0.15159 -0.127,-0.17839 -0.0699,-0.0268 -0.127,-0.0828 -0.127,-0.12435 0,-0.12211 0.23074,-0.0868 0.37496,0.0574 0.0732,0.0732 0.13304,0.10415 0.13304,0.0688 0,-0.0353 0.10616,0.0375 0.2359,0.16178 0.12974,0.1243 0.36787,0.25092 0.52917,0.28138 0.18124,0.0342 0.41766,0.18232 0.61889,0.38769 0.1791,0.18277 0.41722,0.36714 0.52917,0.4097 0.11195,0.0426 0.20354,0.13548 0.20354,0.20648 0,0.14917 -0.0515,0.16652 -0.12785,0.0431 z m -0.80348,-0.76062 c 0,-0.0466 -0.0594,-0.0847 -0.132,-0.0847 -0.0726,0 -0.10845,0.0381 -0.0797,0.0847 0.0288,0.0466 0.0882,0.0847 0.132,0.0847 0.0438,0 0.0797,-0.0381 0.0797,-0.0847 z m 3.85233,0.12013 c -0.2794,-0.15355 -0.64083,-0.34046 -0.80318,-0.41536 -0.16235,-0.0749 -0.3719,-0.20581 -0.46566,-0.2909 -0.26183,-0.23759 -0.56274,-0.37065 -0.8216,-0.36329 -0.12922,0.004 -0.25691,-0.0289 -0.28375,-0.0723 -0.0271,-0.0439 0.10386,-0.079 0.29486,-0.079 0.20341,0 0.34366,-0.0399 0.34366,-0.0978 0,-0.0585 0.0624,-0.0414 0.15504,0.0425 0.0853,0.0772 0.17784,0.1175 0.20572,0.0896 0.0279,-0.0279 0.21528,0.0609 0.41646,0.19723 0.20118,0.13635 0.43246,0.27217 0.51395,0.30183 0.0815,0.0297 0.14817,0.13358 0.14817,0.23092 0,0.0974 0.0356,0.15499 0.0791,0.12811 0.0935,-0.0578 0.75935,0.18627 0.92563,0.33924 0.097,0.0892 0.0901,0.11954 -0.0423,0.18737 -0.12027,0.0616 -0.27949,0.0142 -0.66605,-0.19826 z m -56.520554,-0.008 c -0.0895,-0.2354 -0.04547,-0.49259 0.07191,-0.42004 0.07675,0.0474 0.133449,0.64631 0.06119,0.64631 -0.02589,0 -0.08579,-0.10182 -0.133107,-0.22627 z m 27.310552,0.14441 c -0.214627,-0.0436 -0.227752,-0.0595 -0.08467,-0.10229 0.09313,-0.0279 0.236009,-0.0781 0.3175,-0.11164 0.103571,-0.0426 0.148167,-0.0216 0.148167,0.0701 0,0.17553 -0.07885,0.20531 -0.381,0.14387 z m -0.253038,-0.50757 c -0.139171,-0.0927 -0.28033,-0.27065 -0.313687,-0.39537 -0.04586,-0.17147 -0.0368,-0.20293 0.03714,-0.12899 0.05378,0.0538 0.216235,0.0978 0.361005,0.0978 0.333962,0 0.577103,0.17512 0.536757,0.38659 -0.04287,0.22469 -0.317477,0.24237 -0.621213,0.04 z m 27.17219,-0.29265 c -0.0903,-0.066 -0.13897,-0.14533 -0.1081,-0.17619 0.0714,-0.0714 0.40928,0.10581 0.40928,0.21458 0,0.11543 -0.11,0.10141 -0.30118,-0.0384 z m -53.29282,-1.11291 c 0,-0.0698 -0.05829,-0.14936 -0.129523,-0.1767 -0.08315,-0.0319 -0.110959,-0.10819 -0.07767,-0.21307 0.02852,-0.0898 0.0059,-0.21869 -0.05018,-0.28631 -0.05841,-0.0704 -0.06584,-0.12293 -0.01736,-0.12293 0.141538,0 0.280828,0.22426 0.226776,0.36512 -0.03136,0.0817 0.0168,0.17485 0.12554,0.24277 0.208991,0.13051 0.222298,0.20305 0.04942,0.26939 -0.0781,0.03 -0.127,-1.7e-4 -0.127,-0.0783 z m 51.77367,-0.23897 c -0.1397,-0.1067 -0.43435,-0.26023 -0.65478,-0.34117 -0.22043,-0.0809 -0.48367,-0.21427 -0.58497,-0.2963 -0.33559,-0.27174 0.0488,-0.48574 0.39807,-0.2216 0.0904,0.0684 0.2215,0.12657 0.29135,0.12933 0.0699,0.003 0.21945,0.12972 0.33245,0.28214 0.11301,0.15241 0.27797,0.28257 0.3666,0.28925 0.1795,0.0135 0.40161,0.1717 0.40161,0.28601 0,0.13657 -0.29354,0.0685 -0.55033,-0.12766 z m -52.747337,-0.052 c -0.02878,-0.0466 -0.01198,-0.0847 0.03734,-0.0847 0.04931,0 0.08966,0.0381 0.08966,0.0847 0,0.0466 -0.0168,0.0847 -0.03734,0.0847 -0.02054,0 -0.06088,-0.0381 -0.08966,-0.0847 z m 1.143,-0.16934 c 0,-0.0466 0.0381,-0.0847 0.08467,-0.0847 0.04657,0 0.08467,0.0381 0.08467,0.0847 0,0.0466 -0.0381,0.0847 -0.08467,0.0847 -0.04657,0 -0.08467,-0.0381 -0.08467,-0.0847 z m 24.052019,-0.21872 c 0.0041,-0.0986 0.02412,-0.11869 0.05115,-0.0511 0.02446,0.0611 0.02145,0.13414 -0.0067,0.16228 -0.02813,0.0281 -0.04814,-0.0219 -0.04447,-0.11113 z M 32.88784,56.26625 c -0.160613,-0.12149 -0.160132,-0.12431 0.02117,-0.12431 0.108458,0 0.185515,0.0528 0.185515,0.127 0,0.15321 -5.92e-4,0.1532 -0.206682,-0.003 z m 14.00735,-0.29364 c 0.165809,-0.10716 0.277891,-0.10716 0.211667,0 -0.02878,0.0466 -0.116754,0.0841 -0.195497,0.0834 -0.123383,-10e-4 -0.125618,-0.0126 -0.01617,-0.0834 z M 32.971139,55.80912 c -0.02679,-0.0434 -0.01,-0.10274 0.03734,-0.13199 0.04733,-0.0292 0.08605,0.006 0.08605,0.0788 0,0.14872 -0.0508,0.17062 -0.123383,0.0532 z m -0.593849,-0.2433 c -0.08988,-0.0899 -0.0413,-0.18588 0.09407,-0.18588 0.07636,0 0.191521,-0.0667 0.255917,-0.14817 0.105934,-0.13405 0.114886,-0.12397 0.094,0.10584 -0.01777,0.19555 -0.06636,0.25618 -0.21115,0.26349 -0.103435,0.005 -0.20821,-0.0107 -0.232833,-0.0353 z m 45.632906,-0.18588 c -0.0288,-0.0466 -0.0142,-0.0847 0.0323,-0.0847 0.0466,0 0.10821,0.0381 0.13699,0.0847 0.0288,0.0466 0.0142,0.0847 -0.0323,0.0847 -0.0466,0 -0.10821,-0.0381 -0.13699,-0.0847 z M 31.570522,55.21061 c 0,-0.0466 0.04035,-0.0847 0.08966,-0.0847 0.04931,0 0.06612,0.0381 0.03734,0.0847 -0.02878,0.0466 -0.06913,0.0847 -0.08966,0.0847 -0.02053,0 -0.03734,-0.0381 -0.03734,-0.0847 z m 43.557864,-1.04493 c -0.11942,-0.16935 -0.11593,-0.18477 0.0476,-0.21041 0.17368,-0.0272 0.42118,0.11371 0.42118,0.23983 0,0.16476 -0.34724,0.14297 -0.46881,-0.0294 z M 47.128023,53.88224 c -0.08149,-0.0213 -0.148166,-0.0705 -0.148166,-0.10925 0,-0.0871 0.324055,-0.009 0.387316,0.0932 0.04805,0.0778 0.0073,0.0805 -0.23915,0.0161 z m -14.993056,-0.0828 c -0.08092,-0.0809 -0.0696,-0.19755 0.01916,-0.19755 0.04158,0 0.09754,0.0571 0.124343,0.127 0.04952,0.12906 -0.04067,0.1734 -0.143507,0.0705 z M 42.19619,47.16722 c -0.08429,-0.0931 -0.121649,-0.16933 -0.08303,-0.16933 0.03862,0 -0.0091,-0.0857 -0.106038,-0.1905 -0.312824,-0.33811 -0.51804,-0.85253 -0.609815,-1.52861 -0.102982,-0.75865 -0.03372,-0.97563 0.452705,-1.41827 0.157205,-0.14306 0.308698,-0.37939 0.338405,-0.52793 0.02958,-0.1479 0.156882,-0.42194 0.282889,-0.60897 0.126007,-0.18703 0.344634,-0.56309 0.485837,-0.8357 0.2274,-0.43901 0.305003,-0.51392 0.679223,-0.65562 0.23237,-0.088 0.470115,-0.22465 0.528324,-0.3037 0.05821,-0.0791 0.106407,-0.37458 0.107108,-0.65672 6.78e-4,-0.28214 0.05296,-0.66147 0.116137,-0.84295 0.223156,-0.64106 1.10992,-0.91823 1.883082,-0.58859 0.363268,0.15489 0.664169,0.22665 1.721255,0.41053 0.454066,0.079 0.773815,0.1823 0.873867,0.28235 0.302206,0.3022 0.407605,1.23155 0.18753,1.65352 -0.06956,0.13339 -0.126479,0.3092 -0.126479,0.3907 0,0.0815 -0.111995,0.27645 -0.248879,0.43323 -0.136883,0.15678 -0.291122,0.45282 -0.342751,0.65785 -0.14759,0.58614 -0.408639,1.02381 -0.720343,1.20772 -0.245396,0.14478 -0.63536,0.73103 -0.63536,0.95515 0,0.35979 -0.952285,0.9764 -1.651,1.06904 -0.232834,0.0309 -0.499534,0.0873 -0.592667,0.12548 -0.167054,0.0684 -0.167163,0.0669 -0.008,-0.11432 0.133541,-0.15209 0.138847,-0.18369 0.03084,-0.18369 -0.07174,0 -0.239574,0.0569 -0.372955,0.12648 -0.133382,0.0696 -0.311691,0.12671 -0.396245,0.127 -0.08455,2.5e-4 -0.230855,0.0418 -0.325117,0.0922 -0.265638,0.14217 -0.935285,0.11518 -1.05046,-0.0423 -0.05391,-0.0737 -0.158448,-0.13406 -0.232298,-0.13406 -0.11876,0 -0.114953,0.0562 0.03294,0.48602 0.103703,0.30142 0.134185,0.49703 0.08025,0.51501 -0.04783,0.0159 -0.06385,0.12108 -0.0356,0.23365 0.06241,0.24867 -0.05589,0.26454 -0.263324,0.0353 z m 0.884826,-1.51965 c 0.176669,-0.18388 0.419891,-0.34754 0.540494,-0.36369 0.120603,-0.0161 0.246118,-0.0562 0.278922,-0.089 0.03281,-0.0328 0.244993,-0.0597 0.471526,-0.0597 0.288011,0 0.426536,-0.0382 0.460614,-0.127 0.02928,-0.0763 0.15696,-0.127 0.319827,-0.127 0.149101,0 0.34505,-0.0559 0.435442,-0.12431 0.09039,-0.0684 0.231024,-0.12551 0.312516,-0.127 0.08149,-10e-4 0.148166,-0.0408 0.148166,-0.0874 0,-0.0466 0.04762,-0.0863 0.105834,-0.0883 0.05821,-0.002 0.239183,-0.27823 0.402166,-0.61383 0.211874,-0.43628 0.347211,-0.61746 0.474837,-0.63568 0.199097,-0.0284 0.312613,-0.21588 0.471639,-0.77885 0.05919,-0.20955 0.194302,-0.5334 0.300242,-0.71967 0.105939,-0.18626 0.249402,-0.46039 0.318805,-0.60917 0.0694,-0.14878 0.184288,-0.30302 0.255298,-0.34276 0.09092,-0.0509 0.114221,-0.14669 0.07878,-0.3239 -0.03941,-0.19704 -0.126968,-0.28242 -0.403464,-0.39344 -0.486606,-0.19538 -1.346812,-0.3491 -1.679913,-0.30021 -0.322525,0.0473 -0.857548,-0.08 -0.790676,-0.18825 0.02523,-0.0408 0.0072,-0.0982 -0.04017,-0.12741 -0.04733,-0.0292 -0.08605,0.005 -0.08605,0.0758 0,0.071 -0.06679,0.16477 -0.148425,0.20846 -0.155046,0.083 -0.385171,0.72658 -0.356615,0.99736 0.0091,0.0863 0.01215,0.29747 0.0068,0.46936 -0.0091,0.29068 -0.04379,0.3307 -0.496583,0.57233 -0.496028,0.2647 -0.664462,0.51076 -0.832141,1.21569 -0.0351,0.14757 -0.09857,0.22177 -0.167169,0.19544 -0.0655,-0.0251 -0.177835,0.085 -0.27554,0.27012 -0.350158,0.66347 -0.488103,0.8602 -0.672249,0.95875 -0.104904,0.0562 -0.190735,0.15207 -0.190735,0.21316 0,0.0611 -0.100036,0.13619 -0.222303,0.16688 -0.188173,0.0472 -0.200899,0.0678 -0.08289,0.13381 0.07668,0.0429 0.118499,0.11187 0.09293,0.15324 -0.02557,0.0414 0.03078,0.11657 0.125219,0.16711 0.103808,0.0556 0.171705,0.17755 0.171705,0.30851 0,0.145 0.05567,0.23117 0.168381,0.26064 0.09261,0.0242 0.147511,0.0778 0.122004,0.11908 -0.113505,0.18365 0.08899,0.0465 0.382774,-0.25928 z m -0.436093,-0.0213 c 0.07902,-0.079 0.124178,-0.079 0.2032,0 0.07902,0.079 0.05644,0.1016 -0.1016,0.1016 -0.158045,0 -0.180622,-0.0226 -0.1016,-0.1016 z m 2.7686,-0.57573 c 0.02878,-0.0466 -0.02612,-0.0847 -0.122003,-0.0847 -0.09588,0 -0.17433,0.0381 -0.17433,0.0847 0,0.0466 0.0549,0.0847 0.122003,0.0847 0.0671,0 0.14555,-0.0381 0.17433,-0.0847 z m -2.116667,2.19677 -0.169333,-0.0773 0.169333,0.008 c 0.301968,0.0149 0.364125,-0.008 0.628504,-0.23033 0.193494,-0.16282 0.260496,-0.18608 0.260496,-0.0904 0,0.14521 -0.431438,0.48212 -0.605736,0.47301 -0.06266,-0.003 -0.19013,-0.0407 -0.283264,-0.0833 z m 0.127,-0.33411 c 0,-0.0466 0.0381,-0.0847 0.08467,-0.0847 0.04657,0 0.08467,0.0381 0.08467,0.0847 0,0.0466 -0.0381,0.0847 -0.08467,0.0847 -0.04657,0 -0.08467,-0.0381 -0.08467,-0.0847 z m 0.60783,-0.3146 c 0.04963,-0.0598 0.154491,-0.10873 0.233022,-0.10873 0.07853,0 0.216741,-0.0559 0.307133,-0.12431 0.287408,-0.21738 0.415408,-0.14599 0.172952,0.0965 -0.14972,0.14972 -0.323692,0.22939 -0.51475,0.23573 -0.225974,0.008 -0.269015,-0.014 -0.198357,-0.0991 z m -1.485114,-0.15106 c -0.0268,-0.0699 -0.01183,-0.127 0.03328,-0.127 0.0451,0 0.08201,0.0571 0.08201,0.127 0,0.0699 -0.01497,0.127 -0.03327,0.127 -0.0183,0 -0.05521,-0.0571 -0.08201,-0.127 z m 14.106221,-0.02 c -0.36944,-0.0444 -0.875388,-0.67943 -0.813503,-1.02107 0.07272,-0.40146 0.33343,-0.90011 0.651927,-1.24693 0.170041,-0.18516 0.309346,-0.37635 0.309569,-0.42487 5.08e-4,-0.10759 0.635087,-0.71839 0.945045,-0.90961 0.123735,-0.0763 0.404308,-0.18394 0.623495,-0.23913 0.264036,-0.0665 0.491453,-0.19995 0.673904,-0.39549 0.324765,-0.34806 0.481666,-0.50291 0.765552,-0.75555 0.191792,-0.17067 0.209742,-0.24759 0.209742,-0.89874 0,-0.84287 0.12252,-1.06172 0.722699,-1.29093 0.306792,-0.11716 0.536331,-0.13577 1.163256,-0.0943 1.263353,0.0836 1.639498,0.28186 1.826807,0.96286 0.188135,0.68401 0.292445,0.90091 0.59356,1.23421 0.159185,0.17619 0.264949,0.34483 0.235034,0.37475 -0.02991,0.0299 0.0094,0.12491 0.08743,0.21109 0.124393,0.13746 0.129803,0.22132 0.04403,0.68253 -0.05378,0.2892 -0.16569,0.62182 -0.248684,0.73916 -0.08299,0.11734 -0.203359,0.31615 -0.267478,0.4418 -0.251331,0.49252 -0.525126,0.65393 -1.410877,0.83175 -0.462427,0.0928 -1.003248,0.20659 -1.201824,0.25279 -0.198576,0.0462 -0.523468,0.084 -0.72198,0.084 -0.297718,0 -0.401303,0.046 -0.591452,0.26271 -0.126785,0.14448 -0.23052,0.28436 -0.23052,0.31083 0,0.43275 -2.238896,1.02354 -3.365731,0.88812 z m 0.441115,-0.87484 c -0.02679,-0.0433 -0.01244,-0.0788 0.03189,-0.0788 0.04433,0 0.10088,0.0528 0.12566,0.11741 0.09373,0.24427 0.867965,0.0344 1.116299,-0.30257 0.09787,-0.13281 0.157579,-0.16123 0.185506,-0.0883 0.02764,0.0722 0.09637,0.0374 0.209031,-0.10583 0.09232,-0.11736 0.22343,-0.21339 0.291361,-0.21339 0.06793,0 0.148531,-0.0667 0.179108,-0.14816 0.0644,-0.17163 0.217966,-0.30654 0.57409,-0.50436 0.185204,-0.10288 0.508259,-0.14721 1.19273,-0.16366 1.079279,-0.0259 1.802968,-0.23327 2.151604,-0.61644 0.116417,-0.12794 0.278342,-0.2568 0.359833,-0.28634 0.08149,-0.0296 0.148167,-0.13362 0.148167,-0.23128 0,-0.0977 0.03946,-0.25128 0.08768,-0.34138 0.06914,-0.1292 0.04229,-0.23062 -0.127,-0.47976 -0.118073,-0.17376 -0.214678,-0.38139 -0.214678,-0.4614 0,-0.08 -0.05159,-0.17594 -0.11465,-0.21318 -0.06306,-0.0372 -0.139257,-0.17248 -0.169333,-0.30054 -0.03008,-0.12806 -0.07895,-0.33761 -0.108605,-0.46566 -0.06179,-0.26682 -0.303669,-0.52917 -0.487875,-0.52917 -0.06905,0 -0.149475,-0.0387 -0.178724,-0.0861 -0.02925,-0.0473 -0.09032,-0.0631 -0.135705,-0.035 -0.04539,0.028 -0.128482,0.0139 -0.18465,-0.0314 -0.223189,-0.18005 -0.804547,-0.20596 -1.072296,-0.0478 -0.275662,0.16283 -0.288027,0.21592 -0.180177,0.77358 0.04166,0.21541 0.03783,0.3815 -0.0095,0.41073 -0.04367,0.027 -0.06002,0.0996 -0.03632,0.16134 0.07018,0.18288 -0.134078,0.61356 -0.344363,0.7261 -0.107344,0.0575 -0.195173,0.13465 -0.195173,0.17154 0,0.1165 -0.685229,0.75097 -0.811039,0.75097 -0.06616,0 -0.120294,0.0366 -0.120294,0.0813 0,0.0447 -0.1524,0.12693 -0.338667,0.18273 -0.186266,0.0558 -0.338666,0.13354 -0.338666,0.17273 0,0.0392 -0.02857,0.0652 -0.0635,0.0578 -0.167242,-0.0354 -0.359834,0.13667 -0.359834,0.32149 0,0.11289 -0.0557,0.22664 -0.123776,0.25276 -0.06808,0.0261 -0.144221,0.11065 -0.169207,0.18784 -0.06059,0.18717 -0.446475,0.36961 -0.500081,0.23642 -0.02127,-0.0528 -0.08852,0.0279 -0.149444,0.17931 -0.06093,0.15146 -0.179811,0.29729 -0.264187,0.32407 -0.206531,0.0656 -0.585508,0.45207 -0.530506,0.54107 0.02422,0.0392 0.125017,0.0501 0.223994,0.0242 0.116888,-0.0306 0.2077,0.003 0.259119,0.0944 0.04354,0.0778 0.115542,0.11898 0.160006,0.0915 0.04447,-0.0275 0.05893,-0.0854 0.03213,-0.12878 z m 13.063838,-5.83015 c -0.22098,-0.0308 -0.44958,-0.1067 -0.508,-0.16863 -0.0872,-0.0924 -0.0657,-0.10545 0.12005,-0.0726 0.21983,0.0388 0.22256,0.0343 0.0961,-0.15872 -0.0727,-0.11095 -0.21423,-0.19867 -0.32054,-0.19867 -0.18244,0 -0.20373,-0.0678 -0.13963,-0.4445 0.006,-0.0349 0.0941,0.0198 0.19602,0.12171 0.11521,0.11521 0.19756,0.14815 0.21788,0.0872 0.0195,-0.0584 0.10727,-0.0151 0.21696,0.10681 0.18144,0.20167 0.73462,0.35686 0.73462,0.20609 0,-0.14801 0.14989,-0.0761 0.19415,0.0932 0.0457,0.17481 -0.19975,0.38841 -0.3145,0.27366 -0.0319,-0.0319 -0.0328,0.008 -0.002,0.0876 0.0307,0.0801 0.0232,0.14049 -0.0167,0.13427 -0.0399,-0.006 -0.25336,-0.0365 -0.47434,-0.0674 z m 1.15085,-0.0208 c 0.0814,-0.0456 0.3843,-0.0983 0.67313,-0.11715 0.69426,-0.0454 0.958,-0.10754 1.07998,-0.25452 0.0555,-0.0669 0.13648,-0.12155 0.17999,-0.12155 0.089,0 -0.15327,0.37692 -0.24964,0.38831 -0.034,0.004 -0.11901,0.0296 -0.18886,0.0569 -0.23564,0.0919 -1.65454,0.13755 -1.4946,0.048 z m -1.97674,-0.40856 c 0,-0.0466 0.0381,-0.0847 0.0847,-0.0847 0.0466,0 0.0847,0.0381 0.0847,0.0847 0,0.0466 -0.0381,0.0847 -0.0847,0.0847 -0.0466,0 -0.0847,-0.0381 -0.0847,-0.0847 z m -0.27166,-0.254 c -0.0736,-0.30784 -0.0671,-0.59266 0.0135,-0.59266 0.0385,0 0.0682,-0.0476 0.0661,-0.10584 -0.0143,-0.38498 0.0305,-0.48673 0.21325,-0.48426 0.17013,0.002 0.17466,0.0118 0.0423,0.0889 -0.0815,0.0475 -0.14816,0.14654 -0.14816,0.22017 0,0.10571 0.0623,0.12375 0.29633,0.0858 0.21846,-0.0354 0.29633,-0.0175 0.29633,0.0685 0,0.0736 -0.11708,0.12625 -0.3175,0.14284 -0.30781,0.0255 -0.31893,0.0379 -0.36452,0.40728 -0.0385,0.31163 -0.0562,0.34246 -0.0976,0.16933 z m 3.743,0 c 0,-0.0466 0.0381,-0.0847 0.0847,-0.0847 0.0466,0 0.0847,0.0381 0.0847,0.0847 0,0.0466 -0.0381,0.0847 -0.0847,0.0847 -0.0466,0 -0.0847,-0.0381 -0.0847,-0.0847 z m -1.82034,-0.0847 c 0.0288,-0.0466 0.0691,-0.0847 0.0897,-0.0847 0.0205,0 0.0373,0.0381 0.0373,0.0847 0,0.0466 -0.0403,0.0847 -0.0897,0.0847 -0.0493,0 -0.0661,-0.0381 -0.0373,-0.0847 z m 2.413,-0.513 c 0,-0.0493 0.0381,-0.0661 0.0847,-0.0373 0.0466,0.0288 0.0847,0.0691 0.0847,0.0897 0,0.0205 -0.0381,0.0373 -0.0847,0.0373 -0.0466,0 -0.0847,-0.0403 -0.0847,-0.0897 z m -1.62454,-0.0528 c 0.0611,-0.0245 0.13414,-0.0215 0.16228,0.007 0.0281,0.0281 -0.0219,0.0481 -0.11113,0.0445 -0.0986,-0.004 -0.11869,-0.0241 -0.0512,-0.0512 z m 0.82565,-0.22098 c 0.0318,-0.0835 0.0791,-0.13049 0.10521,-0.10442 0.0261,0.0261 5e-5,0.0944 -0.0578,0.15181 -0.0836,0.083 -0.0933,0.0733 -0.0474,-0.0474 z m 1.09523,0.0248 c 0.0288,-0.0466 0.0904,-0.0847 0.13699,-0.0847 0.0466,0 0.0611,0.0381 0.0323,0.0847 -0.0288,0.0466 -0.0904,0.0847 -0.13699,0.0847 -0.0466,0 -0.0611,-0.0381 -0.0323,-0.0847 z m -4.05914,-0.44782 c 0.023,-0.06 0.11492,-0.11465 0.20419,-0.12138 0.10872,-0.008 0.14694,0.0279 0.11574,0.10915 -0.0256,0.0668 -0.11751,0.12138 -0.2042,0.12138 -0.0939,0 -0.14067,-0.0442 -0.11573,-0.10915 z M 69.163816,37.626 c 7.2e-4,-0.0377 0.0382,-0.12564 0.0834,-0.19549 0.0707,-0.10945 0.0823,-0.10722 0.0834,0.0162 6.7e-4,0.0787 -0.0368,0.16671 -0.0834,0.19549 -0.0466,0.0288 -0.0841,0.0215 -0.0834,-0.0162 z m 5.50204,-0.0262 c 0,-0.0466 0.0403,-0.0847 0.0897,-0.0847 0.0493,0 0.0661,0.0381 0.0373,0.0847 -0.0288,0.0466 -0.0691,0.0847 -0.0897,0.0847 -0.0205,0 -0.0373,-0.0381 -0.0373,-0.0847 z m -4.826,-0.16121 c 0,-0.0565 -0.0381,-0.0792 -0.0847,-0.0505 -0.0466,0.0288 -0.0847,-0.003 -0.0847,-0.0706 0,-0.155362 0.22984,-0.247659 0.39147,-0.157205 0.10257,0.0574 0.0944,0.09464 -0.0496,0.224925 -0.106,0.0959 -0.17253,0.1165 -0.17253,0.0533 z m -0.45864,-0.16609 c -0.0365,-0.05902 -0.0434,-0.130167 -0.0155,-0.158114 0.0758,-0.07577 0.15839,0.03567 0.11746,0.158454 -0.0287,0.086 -0.0486,0.086 -0.10196,-3.4e-4 z m 5.19267,-0.0122 c 0.15897,-0.03748 0.36852,-0.03599 0.46567,0.003 0.12656,0.0512 0.0446,0.0705 -0.28903,0.0682 -0.4214,-0.003 -0.43819,-0.01 -0.17664,-0.0714 z m 7.62731,-0.386757 c 0,-0.12001 -0.0226,-0.131722 -0.1016,-0.0527 -0.0559,0.05588 -0.14161,0.100333 -0.1905,0.09878 -0.14582,-0.0046 0.2987,-0.33585 0.45071,-0.33585 0.0769,0 0.21187,-0.09589 0.29988,-0.213079 0.13426,-0.178783 0.20563,-0.204522 0.44343,-0.159911 0.18331,0.03439 0.28341,0.01994 0.28341,-0.04092 0,-0.05175 0.0594,-0.09409 0.132,-0.09409 0.0792,0 0.10752,0.03961 0.0708,0.09906 -0.0418,0.06762 -0.0141,0.08097 0.0873,0.04206 0.0817,-0.03135 0.19272,-0.02831 0.24673,0.0068 0.054,0.03506 0.24154,0.06614 0.41674,0.06906 0.1752,0.0029 0.3657,0.05614 0.42333,0.118278 0.0836,0.09018 0.0827,0.100452 -0.005,0.05092 -0.0603,-0.03413 -0.19361,-0.0075 -0.29634,0.05909 -0.17132,0.111122 -0.40165,0.152259 -1.62611,0.290433 -0.23283,0.02627 -0.47095,0.08572 -0.52916,0.132096 -0.0768,0.06119 -0.10584,0.04199 -0.10584,-0.06998 z m -12.78467,-0.199961 c 0,-0.142448 0.0381,-0.258997 0.0847,-0.258997 0.0466,0 0.0847,0.093 0.0847,0.20667 0,0.113668 -0.0381,0.230217 -0.0847,0.258997 -0.0494,0.03053 -0.0847,-0.05557 -0.0847,-0.20667 z m 10.18811,-0.106632 c 0.0204,-0.213258 0.22872,-0.575698 0.33092,-0.575698 0.0354,0 0.0643,0.0635 0.0643,0.141111 0,0.07761 0.0286,0.112536 0.0635,0.07761 0.0349,-0.03493 0.0635,-0.10795 0.0635,-0.162277 0,-0.05433 0.0857,-0.110953 0.1905,-0.125834 0.10478,-0.01488 0.1905,-0.05971 0.1905,-0.09963 0,-0.03991 0.0667,-0.08557 0.14817,-0.101459 0.10027,-0.01955 0.14817,-0.107993 0.14817,-0.273616 0,-0.306251 0.14982,-0.364424 0.37041,-0.143828 0.11503,0.115031 0.18295,0.137092 0.2118,0.06879 0.0263,-0.06216 0.1251,-0.0036 0.25887,0.153458 0.16603,0.194874 0.21651,0.21951 0.21683,0.105834 5.1e-4,-0.16897 0.13806,-0.200902 0.19031,-0.04417 0.0191,0.0572 0.117,0.104822 0.21763,0.105833 0.10063,10e-4 0.18106,0.03994 0.17873,0.0865 -0.002,0.04657 -0.0812,0.07502 -0.17539,0.06323 -0.10674,-0.01337 -0.15698,0.0185 -0.13351,0.08467 0.0207,0.05836 0.1287,0.09706 0.23998,0.08601 0.16912,-0.01679 0.17912,-0.0063 0.0609,0.06395 -0.0955,0.05675 -0.21926,0.05291 -0.381,-0.01182 -0.40227,-0.160989 -1.09919,-0.188338 -1.15408,-0.04529 -0.026,0.06776 -0.19122,0.170708 -0.36716,0.228771 -0.17593,0.05806 -0.37862,0.172889 -0.45042,0.255165 -0.0718,0.08228 -0.21414,0.173845 -0.3163,0.203484 -0.15584,0.04521 -0.18275,0.02254 -0.16714,-0.14081 z m -9.79864,-0.209536 c 0.1017,-0.425142 0.1876,-0.472226 0.75142,-0.411846 0.56194,0.06018 0.80644,0.0071 0.80644,-0.175041 0,-0.06487 0.0398,-0.117942 0.0884,-0.117942 0.0486,0 0.0772,0.06668 0.0635,0.148167 -0.0311,0.185028 0.39193,0.224388 0.53671,0.04994 0.0797,-0.09598 0.11586,-0.09032 0.21594,0.03379 0.11289,0.139993 0.1176,0.138757 0.077,-0.02023 -0.0586,-0.229223 0.12234,-0.447574 0.41478,-0.500605 0.13256,-0.02404 0.2662,-0.08445 0.29698,-0.13425 0.0308,-0.0498 0.11573,-0.06761 0.18879,-0.03957 0.0731,0.02804 0.15799,0.01028 0.18873,-0.03947 0.0906,-0.146549 0.21523,-0.103626 0.21523,0.07411 0,0.09304 -0.11037,0.229748 -0.254,0.314588 -0.16331,0.09647 -0.254,0.218518 -0.254,0.341841 0,0.132449 -0.0636,0.207761 -0.20554,0.243386 -0.11305,0.02837 -0.22618,0.105376 -0.25141,0.171116 -0.0356,0.09289 -0.18746,0.111485 -0.68117,0.08344 -0.34941,-0.01985 -0.6718,-0.05865 -0.7164,-0.08622 -0.0446,-0.02757 -0.10504,-0.0114 -0.13429,0.03592 -0.0293,0.04733 -0.27001,0.08086 -0.53502,0.07452 -0.26501,-0.0063 -0.39611,-0.02804 -0.29133,-0.04822 0.29596,-0.057 0.22421,-0.208228 -0.0847,-0.178446 -0.15134,0.01459 -0.26929,0.06463 -0.26211,0.111197 0.007,0.04657 -0.0419,0.13514 -0.10903,0.196829 -0.10475,0.09623 -0.11397,0.07819 -0.0649,-0.127 z m 3.2512,-0.541201 c 0,-0.142003 -0.036,-0.164258 -0.1905,-0.117913 -0.10478,0.03142 -0.24629,0.110186 -0.31448,0.175038 -0.1071,0.101862 -0.0812,0.117914 0.1905,0.117914 0.26145,0 0.31448,-0.02952 0.31448,-0.175039 z m -0.16934,-0.248294 c 0,-0.04657 -0.0358,-0.08467 -0.0797,-0.08467 -0.0438,0 -0.10321,0.0381 -0.13199,0.08467 -0.0288,0.04657 0.007,0.08467 0.0797,0.08467 0.0726,0 0.13199,-0.0381 0.13199,-0.08467 z m -3.47133,0.59001 c 0,-0.04511 0.0571,-0.08201 0.127,-0.08201 0.0699,0 0.127,0.01497 0.127,0.03328 0,0.0183 -0.0571,0.05521 -0.127,0.08201 -0.0699,0.0268 -0.127,0.01183 -0.127,-0.03327 z m 12.00306,-0.01161 c 0.0492,-0.0492 0.13943,-0.07279 0.20051,-0.05244 0.0634,0.02114 0.025,0.05952 -0.0894,0.08946 -0.14083,0.03683 -0.17389,0.02581 -0.11106,-0.03702 z M 65.437191,35.271585 c 0,-0.06985 0.01497,-0.127 0.03328,-0.127 0.0183,0 0.05521,0.05715 0.08201,0.127 0.0268,0.06985 0.01183,0.127 -0.03328,0.127 -0.0451,0 -0.08201,-0.05715 -0.08201,-0.127 z m 5.630335,-0.211666 c -0.0288,-0.04657 0.007,-0.08467 0.0797,-0.08467 0.0726,0 0.132,0.0381 0.132,0.08467 0,0.04657 -0.0359,0.08467 -0.0797,0.08467 -0.0438,0 -0.10322,-0.0381 -0.132,-0.08467 z m 0.762,0 c -0.13804,-0.05932 -0.14288,-0.07386 -0.0262,-0.07872 0.0787,-0.0033 0.16671,0.03215 0.19549,0.07872 0.0602,0.09736 0.0572,0.09736 -0.16933,0 z m -2.921,-0.254 c 0.11642,-0.09106 0.32597,-0.163408 0.46567,-0.160767 0.1397,0.0026 0.19685,0.02426 0.127,0.04804 -0.0698,0.02378 -0.24706,0.09697 -0.3938,0.162649 -0.3705,0.165828 -0.44938,0.146028 -0.19887,-0.04992 z M 67.977191,34.29858 c 0,-0.04045 0.08572,-0.08573 0.1905,-0.100606 0.104775,-0.01488 0.1905,-0.0842 0.1905,-0.154055 0,-0.06985 0.0381,-0.13029 0.08466,-0.134313 0.10697,-0.0092 0.38087,-0.109552 0.56397,-0.206549 0.12224,-0.06475 0.24037,0.04136 0.24037,0.215918 0,0.0168 -0.16041,0.04226 -0.35646,0.05657 -0.2721,0.01987 -0.36728,0.06611 -0.40217,0.195369 -0.03,0.111221 -0.125617,0.174803 -0.278546,0.185272 -0.128059,0.0088 -0.232834,-0.01716 -0.232834,-0.05761 z m 0.677335,-0.169995 c 0,-0.04657 0.0381,-0.08467 0.0847,-0.08467 0.0466,0 0.0847,0.0381 0.0847,0.08467 0,0.04657 -0.0381,0.08467 -0.0847,0.08467 -0.0466,0 -0.0847,-0.0381 -0.0847,-0.08467 z m 0.33867,0 c 0,-0.04657 0.0594,-0.08467 0.13199,-0.08467 0.0726,0 0.10845,0.0381 0.0797,0.08467 -0.0288,0.04657 -0.0882,0.08467 -0.13199,0.08467 -0.0438,0 -0.0797,-0.0381 -0.0797,-0.08467 z m 0.33866,-0.162278 c 0,-0.09701 0,-0.204963 0,-0.239888 0,-0.03493 0.0466,-0.0635 0.10348,-0.0635 0.0569,0 0.10348,0.09243 0.10348,0.205395 0,0.112967 -0.0466,0.220917 -0.10348,0.239889 -0.0594,0.01982 -0.10348,-0.04055 -0.10348,-0.141896 z m 0.62229,-2.54711 c -0.0633,-0.316584 -0.36829,-0.529337 -0.36829,-0.256924 0,0.410646 -0.32823,-0.02017 -0.45635,-0.598971 -0.0755,-0.340917 0.21421,-0.562777 0.79502,-0.608906 0.11782,-0.0094 0.20228,-0.06373 0.1905,-0.122644 -0.0263,-0.131362 0.0801,-0.133021 0.49818,-0.0078 0.3617,0.108367 0.45056,0.266258 0.11568,0.205532 -0.19046,-0.03454 -0.20239,-0.02108 -0.11916,0.134433 0.0676,0.126378 0.11768,0.14762 0.18624,0.07906 0.0516,-0.05157 0.14832,-0.09376 0.215,-0.09376 0.0667,0 0.25372,-0.08188 0.41565,-0.181957 0.24691,-0.152596 0.27232,-0.194321 0.15749,-0.258583 -0.0753,-0.04214 -0.17472,-0.05326 -0.22092,-0.02471 -0.0462,0.02855 -0.084,0.01474 -0.084,-0.03069 0,-0.04543 0.0476,-0.101825 0.10583,-0.125313 0.0582,-0.02349 -0.0566,-0.04571 -0.25515,-0.04939 -0.19854,-0.0037 -0.44164,0.04094 -0.54023,0.09915 -0.1434,0.08467 -0.18691,0.08467 -0.21757,0 -0.0211,-0.05821 -0.11848,-0.105834 -0.21645,-0.105834 -0.16655,0 -0.16231,-0.01649 0.0652,-0.254 0.23623,-0.246565 0.26639,-0.254 1.03064,-0.254 h 0.78729 l 0.21988,0.332261 0.21988,0.332262 -0.15236,0.323905 c -0.0838,0.178148 -0.24848,0.400106 -0.36595,0.493239 -0.11747,0.09313 -0.2736,0.226483 -0.34694,0.296333 -0.0734,0.06985 -0.28331,0.201218 -0.46657,0.291927 -0.18326,0.09071 -0.41893,0.240225 -0.5237,0.332258 -0.10478,0.09203 -0.1905,0.137259 -0.1905,0.100503 0,-0.03676 -0.0959,-0.004 -0.21319,0.07286 -0.21027,0.137768 -0.21391,0.136114 -0.26519,-0.120269 z m 0.5462,-0.973365 c -0.0635,-0.05611 -0.56926,0.06888 -0.53075,0.13118 0.0238,0.03857 0.15874,0.0299 0.29979,-0.01927 0.14105,-0.04917 0.24498,-0.09953 0.23096,-0.111907 z m -8.853865,-0.638579 c -0.105808,-0.0425 -0.214269,-0.134316 -0.241026,-0.204044 -0.02676,-0.06973 -0.292612,-0.242045 -0.59079,-0.382928 -0.470136,-0.222128 -0.695807,-0.425696 -0.471918,-0.425696 0.03862,0 0.0672,-0.08352 0.0635,-0.185609 -0.0051,-0.139772 0.108147,-0.250225 0.458408,-0.447249 0.438481,-0.246648 0.463673,-0.278558 0.439688,-0.556939 -0.02028,-0.235379 0.02278,-0.337902 0.212204,-0.505252 0.195726,-0.172918 0.332322,-0.211819 0.774409,-0.220544 0.577124,-0.01139 1.22734,0.145129 1.453626,0.349915 0.145732,0.131885 0.253276,0.09147 0.253276,-0.09519 0,-0.05975 0.110893,-0.272957 0.246428,-0.473782 0.199354,-0.295389 0.338127,-0.396308 0.726466,-0.528308 0.426093,-0.144834 0.475758,-0.185562 0.441948,-0.362425 -0.07157,-0.374394 0.09813,-0.903968 0.323478,-1.009486 0.162044,-0.07588 0.209013,-0.07445 0.209013,0.0063 0,0.06045 0.11557,0.105631 0.275167,0.107581 0.432928,0.0053 0.78513,0.08049 0.762,0.162701 -0.01164,0.04138 -0.05927,0.08 -0.105833,0.08582 -0.04657,0.0058 -0.125016,0.01535 -0.174331,0.02117 -0.04932,0.0058 -0.06647,0.04811 -0.03812,0.09398 0.03196,0.05172 -0.04653,0.06378 -0.20667,0.03175 -0.235373,-0.04707 -0.258209,-0.03198 -0.258209,0.17061 0,0.222813 0.113503,0.296418 0.211808,0.137355 0.035,-0.05663 0.105986,-0.05625 0.213234,0.0011 0.08842,0.04732 0.205171,0.076 0.259445,0.06373 0.05427,-0.01227 0.116142,0.02531 0.137485,0.08352 0.03824,0.104299 -0.225574,0.14298 -0.74741,0.109584 -0.132973,-0.0085 -0.242088,0.03875 -0.272509,0.118029 -0.05256,0.136965 -0.01764,0.151482 0.409614,0.170291 0.435076,0.01915 0.799673,0.138319 0.911448,0.2979 0.18669,0.266536 0.714945,0.42603 1.411036,0.42603 0.83261,0 0.97918,0.09347 0.8982,0.572786 -0.0679,0.402233 -0.14092,0.478508 -0.56968,0.595492 -0.17179,0.04687 -0.43849,0.179829 -0.59267,0.295465 -0.154182,0.115637 -0.442259,0.291575 -0.640167,0.390973 -0.197909,0.0994 -0.359834,0.217073 -0.359834,0.261497 0,0.181863 -0.531107,0.357868 -0.923607,0.306076 -0.362766,-0.04787 -0.400035,-0.03436 -0.558059,0.202299 -0.173079,0.2592 -0.350847,0.348926 -0.269065,0.135807 0.02989,-0.07789 -0.03207,-0.133956 -0.181442,-0.164203 -0.124754,-0.02526 -0.333943,-0.07218 -0.464863,-0.10426 -0.202093,-0.04952 -0.280525,-0.01194 -0.519419,0.24887 l -0.281383,0.307198 -1.216248,-0.0054 c -0.668936,-0.003 -1.302817,-0.04014 -1.408624,-0.08263 z m 2.236818,-0.569464 c 0.05341,-0.03421 0.110559,-0.157454 0.127,-0.27387 0.01644,-0.116417 0.08704,-0.237564 0.156892,-0.269216 0.172438,-0.07814 1.206739,-0.07231 1.778,0.01002 0.494251,0.07123 0.777758,0.007 1.058334,-0.239625 0.09313,-0.08188 0.33549,-0.201135 0.53857,-0.265015 0.225169,-0.07083 0.402439,-0.189017 0.454331,-0.302907 0.0544,-0.1194 0.220639,-0.224711 0.4609,-0.291979 0.47705,-0.133567 0.36545,-0.261831 -0.141468,-0.162585 -0.702127,0.137465 -0.834815,0.108121 -1.191971,-0.263607 -0.182616,-0.190067 -0.332029,-0.378581 -0.332029,-0.418922 0,-0.04034 -0.345152,-0.07009 -0.767006,-0.06611 -0.605437,0.0057 -0.806079,0.03929 -0.9525,0.159407 -0.159463,0.130816 -0.170642,0.176547 -0.07966,0.325869 0.05821,0.09554 0.105833,0.224238 0.105833,0.286008 0,0.131238 -0.379095,0.502043 -0.662504,0.648015 -0.340255,0.17525 -1.533884,-0.07609 -1.877496,-0.395344 -0.306761,-0.285013 -0.45795,-0.217872 -0.508,0.225599 -0.03848,0.341004 -0.07468,0.390959 -0.398215,0.549576 -0.354184,0.173644 -0.459661,0.298335 -0.257951,0.304943 0.05821,0.0019 0.258233,0.114647 0.4445,0.250533 0.317134,0.231358 0.389806,0.247204 1.143,0.249237 0.442383,0.0012 0.848031,-0.02582 0.901441,-0.06003 z m 1.892559,-3.321871 c 0,-0.04657 -0.0381,-0.08467 -0.08467,-0.08467 -0.04657,0 -0.08467,0.0381 -0.08467,0.08467 0,0.04657 0.0381,0.08467 0.08467,0.08467 0.04657,0 0.08467,-0.0381 0.08467,-0.08467 z m 3.471338,3.306878 c -0.1294,-0.0331 -0.22192,-0.124821 -0.23804,-0.235961 -0.0221,-0.152017 0.0109,-0.177834 0.2011,-0.157555 0.23772,0.02535 0.44558,0.274085 0.32088,0.38398 -0.0397,0.03503 -0.16753,0.03932 -0.28394,0.0095 z m 13.28841,0.01912 c -0.20042,-0.02147 -0.42615,-0.143665 -0.67734,-0.366649 -0.20721,-0.183946 -0.41568,-0.3345 -0.46328,-0.334565 -0.0476,-6.4e-5 -0.22445,-0.113792 -0.39301,-0.252729 -0.16855,-0.138937 -0.40681,-0.290765 -0.52946,-0.337396 -0.12265,-0.04663 -0.24385,-0.152031 -0.26934,-0.234221 -0.0255,-0.08219 -0.0811,-0.214606 -0.12346,-0.294257 -0.12154,-0.228261 -0.0146,-0.374075 0.4126,-0.56264 0.2181,-0.09627 0.58704,-0.291661 0.81988,-0.434212 0.23283,-0.142552 0.48048,-0.280183 0.55033,-0.305848 0.0699,-0.02567 0.22225,-0.102799 0.33867,-0.171408 0.41533,-0.244771 0.94795,-0.455125 1.02766,-0.405862 0.11882,0.07343 0.94704,-0.13452 1.05105,-0.263906 0.049,-0.06092 0.33373,-0.155135 0.63278,-0.209364 0.29906,-0.05423 0.62093,-0.141649 0.71529,-0.194269 0.0943,-0.05262 0.20965,-0.09702 0.25622,-0.09867 0.0466,-0.0017 0.0847,-0.05903 0.0847,-0.1275 0,-0.285318 0.66458,-0.429713 1.08313,-0.235334 0.24243,0.112586 0.2745,0.199437 0.14771,0.399932 -0.052,0.08228 -0.0444,0.146706 0.0225,0.189203 0.0697,0.04433 0.0573,0.06484 -0.0397,0.06573 -0.0776,6.78e-4 -0.15381,0.03621 -0.16933,0.07889 -0.0155,0.04268 -0.1711,0.104065 -0.34573,0.136422 -0.29932,0.05546 -0.3175,0.04646 -0.3175,-0.157261 0,-0.263717 -0.062,-0.307792 -0.35431,-0.251911 -0.25904,0.04952 -0.24385,0.191337 0.0572,0.533824 0.11731,0.13347 0.19188,0.339418 0.20186,0.557469 0.0149,0.325485 -0.004,0.354537 -0.31396,0.494506 -0.26401,0.119054 -0.52199,0.144366 -1.29377,0.126943 -0.5302,-0.01197 -1.09106,0.01343 -1.24635,0.05644 l -0.28235,0.0782 0.17111,0.217531 c 0.15212,0.193394 0.16809,0.318285 0.14394,1.125576 -0.0149,0.499425 -0.0411,0.91872 -0.0581,0.931766 -0.18291,0.140309 -0.45881,0.303303 -0.49426,0.292005 -0.0246,-0.0078 -0.17993,-0.02872 -0.34525,-0.04644 z m 0.22743,-1.009481 c -0.0296,-0.21605 -0.0538,-0.495873 -0.0538,-0.621831 0,-0.265251 -0.32127,-0.678686 -0.52739,-0.678686 -0.0775,0 -0.32013,0.09525 -0.53908,0.211667 -0.21895,0.116417 -0.46861,0.211667 -0.55481,0.211667 -0.0862,0 -0.15672,0.0381 -0.15672,0.08467 0,0.04657 0.0331,0.08467 0.0734,0.08467 0.0955,0 1.13187,0.695152 1.37746,0.923949 0.32404,0.301893 0.4427,0.23458 0.38093,-0.216099 z m 0.20016,-1.841156 c 0,-0.118375 1.00249,-0.388909 1.48166,-0.399845 0.18627,-0.0042 0.43392,-0.03805 0.55034,-0.07511 0.11642,-0.03706 -0.22647,-0.04856 -0.762,-0.02555 -0.76257,0.03276 -1.05545,0.08132 -1.35087,0.223985 -0.41182,0.198873 -0.52273,0.360523 -0.28365,0.413418 0.20413,0.04516 0.36452,-0.01507 0.36452,-0.136903 z m 3.81,-1.627419 c 0,-0.0183 -0.10478,-0.03269 -0.23284,-0.03198 -0.16945,9.4e-4 -0.20035,0.02186 -0.11351,0.07683 0.10781,0.06825 0.34635,0.03735 0.34635,-0.04485 z M 67.69718,26.369685 c -0.0197,-0.0197 -0.02265,-0.148906 -0.0066,-0.287125 0.02749,-0.236101 0.01143,-0.251308 -0.265423,-0.251308 -0.162074,0 -0.294679,-0.0381 -0.294679,-0.08467 0,-0.04657 0.05595,-0.08467 0.124343,-0.08467 0.07574,0 0.105294,-0.04964 0.07561,-0.127 -0.06297,-0.164107 0.0073,-0.16168 0.175001,0.006 0.07318,0.07318 0.133048,0.09222 0.133048,0.04233 0,-0.04989 0.06032,-0.09071 0.134055,-0.09071 0.07373,0 0.11831,-0.04724 0.09906,-0.104974 -0.04291,-0.128727 0.270485,-0.38288 0.780701,-0.633126 0.28938,-0.141935 0.33603,-0.188586 0.19057,-0.190586 -0.21118,-0.0029 -1.37775,0.554254 -1.479558,0.70664 -0.04458,0.06673 -0.08834,0.0572 -0.146871,-0.03195 -0.131909,-0.200942 -0.100037,-0.338667 0.07837,-0.338667 0.217378,0 0.302425,-0.147169 0.112086,-0.19396 -0.103969,-0.02556 -0.09791,-0.03071 0.01991,-0.01694 0.09313,0.01089 0.231308,0.04601 0.307054,0.07806 0.101343,0.04288 0.152286,2.54e-4 0.192865,-0.161441 0.03266,-0.130132 0.149108,-0.257424 0.285612,-0.312211 0.305492,-0.122612 0.780462,-0.141783 0.782092,-0.03157 6.8e-4,0.04825 0.0359,0.142359 0.0781,0.209135 0.0639,0.101014 0.13368,0.08379 0.41518,-0.102501 0.39916,-0.264147 0.68829,-0.346111 0.84974,-0.240886 0.15776,0.102815 0.0604,0.235303 -0.31292,0.425842 -0.17147,0.08752 -0.38796,0.243425 -0.48109,0.346468 -0.0931,0.103044 -0.32173,0.26369 -0.508,0.356991 -0.40048,0.200599 -0.80433,0.560699 -0.80433,0.717183 0,0.06114 -0.0381,0.11116 -0.08467,0.11116 -0.04657,0 -0.08467,0.05271 -0.08467,0.117125 0,0.111088 -0.288527,0.243459 -0.364678,0.167308 z m -2.21199,-1.799266 c -0.01794,-0.02903 -0.05818,-0.188998 -0.08941,-0.355476 -0.04904,-0.261412 -0.0282,-0.321413 0.152828,-0.440029 0.334735,-0.219326 0.628561,-0.263779 0.77508,-0.117261 0.197963,0.197964 0.161441,0.395599 -0.0731,0.395599 -0.111435,0 -0.226056,0.0611 -0.254714,0.135784 -0.02975,0.07753 -0.106288,0.114992 -0.178392,0.08732 -0.06946,-0.02665 -0.126286,-0.01156 -0.126286,0.03355 0,0.0451 0.05715,0.08201 0.127,0.08201 0.06985,0 0.127,0.03366 0.127,0.0748 0,0.088 -0.412266,0.180942 -0.460001,0.103704 z m 3.973666,-0.754744 c 0.12106,-0.12441 0.23571,-0.160807 0.40217,-0.127682 0.23816,0.04739 0.32641,0.195925 0.11642,0.195925 -0.064,0 -0.24501,0.0238 -0.40217,0.05289 l -0.28575,0.05289 z"
       id="path885" /></g></svg>
